<mxfile host="app.diagrams.net" modified="2023-10-24T13:21:12.801Z" agent="Mozilla/5.0 (Macintosh; Intel Mac OS X 10_15_7) AppleWebKit/537.36 (KHTML, like Gecko) Chrome/118.0.0.0 Safari/537.36" etag="rirNLHe19DYaI2ologsA" version="22.0.6" type="github">
  <diagram name="Page-1" id="edf60f1a-56cd-e834-aa8a-f176f3a09ee4">
    <mxGraphModel dx="1149" dy="622" grid="0" gridSize="10" guides="1" tooltips="1" connect="1" arrows="1" fold="1" page="1" pageScale="1" pageWidth="1100" pageHeight="850" background="none" math="0" shadow="0">
      <root>
        <mxCell id="0" />
        <mxCell id="1" parent="0" />
        <mxCell id="60e70716793133e9-31" style="edgeStyle=orthogonalEdgeStyle;rounded=0;html=1;labelBackgroundColor=none;startSize=5;endArrow=classicThin;endFill=1;endSize=5;jettySize=auto;orthogonalLoop=1;strokeWidth=1;fontFamily=Verdana;fontSize=8" parent="1" source="60e70716793133e9-2" target="60e70716793133e9-5" edge="1">
          <mxGeometry relative="1" as="geometry" />
        </mxCell>
        <mxCell id="60e70716793133e9-2" value="Determine need to&amp;nbsp;&lt;div&gt;replenish value-add&amp;nbsp;&lt;/div&gt;&lt;div&gt;stock&lt;/div&gt;" style="shape=trapezoid;whiteSpace=wrap;html=1;rounded=0;shadow=1;labelBackgroundColor=none;strokeWidth=1;fontFamily=Verdana;fontSize=8;align=center;flipV=1;" parent="1" vertex="1">
          <mxGeometry x="100" y="120" width="120" height="60" as="geometry" />
        </mxCell>
        <mxCell id="60e70716793133e9-32" style="edgeStyle=orthogonalEdgeStyle;rounded=0;html=1;labelBackgroundColor=none;startSize=5;endArrow=classicThin;endFill=1;endSize=5;jettySize=auto;orthogonalLoop=1;strokeWidth=1;fontFamily=Verdana;fontSize=8" parent="1" source="60e70716793133e9-4" target="60e70716793133e9-5" edge="1">
          <mxGeometry relative="1" as="geometry" />
        </mxCell>
        <mxCell id="60e70716793133e9-4" value="Order a product that&lt;div&gt;requires value-add processing&lt;/div&gt;" style="rounded=0;whiteSpace=wrap;html=1;shadow=1;labelBackgroundColor=none;strokeWidth=1;fontFamily=Verdana;fontSize=8;align=center;" parent="1" vertex="1">
          <mxGeometry x="290" y="120" width="120" height="60" as="geometry" />
        </mxCell>
        <mxCell id="60e70716793133e9-33" value="Yes" style="edgeStyle=orthogonalEdgeStyle;rounded=0;html=1;labelBackgroundColor=none;startSize=5;endArrow=classicThin;endFill=1;endSize=5;jettySize=auto;orthogonalLoop=1;strokeWidth=1;fontFamily=Verdana;fontSize=8" parent="1" source="60e70716793133e9-5" target="60e70716793133e9-7" edge="1">
          <mxGeometry x="-0.7778" y="10" relative="1" as="geometry">
            <mxPoint as="offset" />
          </mxGeometry>
        </mxCell>
        <mxCell id="60e70716793133e9-37" value="No" style="edgeStyle=orthogonalEdgeStyle;rounded=0;html=1;labelBackgroundColor=none;startSize=5;endArrow=classicThin;endFill=1;endSize=5;jettySize=auto;orthogonalLoop=1;strokeWidth=1;fontFamily=Verdana;fontSize=8" parent="1" source="60e70716793133e9-5" target="60e70716793133e9-9" edge="1">
          <mxGeometry x="-0.5" y="10" relative="1" as="geometry">
            <mxPoint as="offset" />
          </mxGeometry>
        </mxCell>
        <mxCell id="60e70716793133e9-5" value="Frequently&lt;div&gt;performed&lt;/div&gt;&lt;div&gt;process?&lt;/div&gt;" style="rhombus;whiteSpace=wrap;html=1;rounded=0;shadow=1;labelBackgroundColor=none;strokeWidth=1;fontFamily=Verdana;fontSize=8;align=center;" parent="1" vertex="1">
          <mxGeometry x="200" y="220" width="100" height="60" as="geometry" />
        </mxCell>
        <mxCell id="60e70716793133e9-34" value="Yes" style="edgeStyle=orthogonalEdgeStyle;rounded=0;html=1;labelBackgroundColor=none;startSize=5;endArrow=classicThin;endFill=1;endSize=5;jettySize=auto;orthogonalLoop=1;strokeWidth=1;fontFamily=Verdana;fontSize=8" parent="1" source="60e70716793133e9-7" target="60e70716793133e9-8" edge="1">
          <mxGeometry x="-0.6667" y="10" relative="1" as="geometry">
            <mxPoint as="offset" />
          </mxGeometry>
        </mxCell>
        <mxCell id="60e70716793133e9-35" value="No" style="edgeStyle=orthogonalEdgeStyle;rounded=0;html=1;labelBackgroundColor=none;startSize=5;endArrow=classicThin;endFill=1;endSize=5;jettySize=auto;orthogonalLoop=1;strokeWidth=1;fontFamily=Verdana;fontSize=8" parent="1" source="60e70716793133e9-7" target="60e70716793133e9-10" edge="1">
          <mxGeometry x="-1" y="-10" relative="1" as="geometry">
            <mxPoint x="440" y="300" as="targetPoint" />
            <Array as="points" />
            <mxPoint as="offset" />
          </mxGeometry>
        </mxCell>
        <mxCell id="60e70716793133e9-7" value="New&amp;nbsp;&lt;div&gt;template&amp;nbsp;&lt;/div&gt;&lt;div&gt;needed?&lt;/div&gt;" style="rhombus;whiteSpace=wrap;html=1;rounded=0;shadow=1;labelBackgroundColor=none;strokeWidth=1;fontFamily=Verdana;fontSize=8;align=center;" parent="1" vertex="1">
          <mxGeometry x="390" y="220" width="100" height="60" as="geometry" />
        </mxCell>
        <mxCell id="60e70716793133e9-36" style="edgeStyle=orthogonalEdgeStyle;rounded=0;html=1;labelBackgroundColor=none;startSize=5;endArrow=classicThin;endFill=1;endSize=5;jettySize=auto;orthogonalLoop=1;strokeWidth=1;fontFamily=Verdana;fontSize=8" parent="1" source="60e70716793133e9-8" target="60e70716793133e9-10" edge="1">
          <mxGeometry relative="1" as="geometry">
            <Array as="points">
              <mxPoint x="600" y="290" />
              <mxPoint x="440" y="290" />
            </Array>
          </mxGeometry>
        </mxCell>
        <mxCell id="60e70716793133e9-8" value="Create work&amp;nbsp;&lt;div&gt;order template&lt;/div&gt;" style="rounded=1;whiteSpace=wrap;html=1;shadow=1;labelBackgroundColor=none;strokeWidth=1;fontFamily=Verdana;fontSize=8;align=center;" parent="1" vertex="1">
          <mxGeometry x="550" y="230" width="100" height="40" as="geometry" />
        </mxCell>
        <mxCell id="60e70716793133e9-38" style="edgeStyle=orthogonalEdgeStyle;rounded=0;html=1;labelBackgroundColor=none;startSize=5;endArrow=classicThin;endFill=1;endSize=5;jettySize=auto;orthogonalLoop=1;strokeWidth=1;fontFamily=Verdana;fontSize=8" parent="1" source="60e70716793133e9-9" target="60e70716793133e9-11" edge="1">
          <mxGeometry relative="1" as="geometry" />
        </mxCell>
        <mxCell id="60e70716793133e9-9" value="Create a work order" style="whiteSpace=wrap;html=1;rounded=0;shadow=1;labelBackgroundColor=none;strokeWidth=1;fontFamily=Verdana;fontSize=8;align=center;" parent="1" vertex="1">
          <mxGeometry x="190" y="320" width="120" height="40" as="geometry" />
        </mxCell>
        <mxCell id="60e70716793133e9-39" style="edgeStyle=orthogonalEdgeStyle;rounded=0;html=1;labelBackgroundColor=none;startSize=5;endArrow=classicThin;endFill=1;endSize=5;jettySize=auto;orthogonalLoop=1;strokeWidth=1;fontFamily=Verdana;fontSize=8" parent="1" source="60e70716793133e9-10" target="60e70716793133e9-12" edge="1">
          <mxGeometry relative="1" as="geometry" />
        </mxCell>
        <mxCell id="60e70716793133e9-10" value="Copy template&amp;nbsp;&lt;div&gt;to work order&lt;/div&gt;" style="whiteSpace=wrap;html=1;rounded=0;shadow=1;labelBackgroundColor=none;strokeWidth=1;fontFamily=Verdana;fontSize=8;align=center;" parent="1" vertex="1">
          <mxGeometry x="380" y="320" width="120" height="40" as="geometry" />
        </mxCell>
        <mxCell id="60e70716793133e9-41" style="edgeStyle=orthogonalEdgeStyle;rounded=0;html=1;labelBackgroundColor=none;startSize=5;endArrow=classicThin;endFill=1;endSize=5;jettySize=auto;orthogonalLoop=1;strokeWidth=1;fontFamily=Verdana;fontSize=8" parent="1" source="60e70716793133e9-11" target="60e70716793133e9-13" edge="1">
          <mxGeometry relative="1" as="geometry" />
        </mxCell>
        <mxCell id="60e70716793133e9-11" value="Add materials to work order processes" style="whiteSpace=wrap;html=1;rounded=0;shadow=1;labelBackgroundColor=none;strokeWidth=1;fontFamily=Verdana;fontSize=8;align=center;spacing=6;" parent="1" vertex="1">
          <mxGeometry x="190" y="410" width="120" height="40" as="geometry" />
        </mxCell>
        <mxCell id="60e70716793133e9-40" style="edgeStyle=orthogonalEdgeStyle;rounded=0;html=1;labelBackgroundColor=none;startSize=5;endArrow=classicThin;endFill=1;endSize=5;jettySize=auto;orthogonalLoop=1;strokeWidth=1;fontFamily=Verdana;fontSize=8" parent="1" source="60e70716793133e9-12" target="60e70716793133e9-13" edge="1">
          <mxGeometry relative="1" as="geometry" />
        </mxCell>
        <mxCell id="60e70716793133e9-12" value="Adjust material quantities if needed" style="whiteSpace=wrap;html=1;rounded=0;shadow=1;labelBackgroundColor=none;strokeWidth=1;fontFamily=Verdana;fontSize=8;align=center;spacing=6;" parent="1" vertex="1">
          <mxGeometry x="380" y="410" width="120" height="40" as="geometry" />
        </mxCell>
        <mxCell id="60e70716793133e9-42" style="edgeStyle=orthogonalEdgeStyle;rounded=0;html=1;labelBackgroundColor=none;startSize=5;endArrow=classicThin;endFill=1;endSize=5;jettySize=auto;orthogonalLoop=1;strokeWidth=1;fontFamily=Verdana;fontSize=8" parent="1" source="60e70716793133e9-13" target="60e70716793133e9-14" edge="1">
          <mxGeometry relative="1" as="geometry" />
        </mxCell>
        <mxCell id="60e70716793133e9-13" value="Monitor work orders" style="whiteSpace=wrap;html=1;rounded=0;shadow=1;labelBackgroundColor=none;strokeWidth=1;fontFamily=Verdana;fontSize=8;align=center;" parent="1" vertex="1">
          <mxGeometry x="280" y="500" width="120" height="40" as="geometry" />
        </mxCell>
        <mxCell id="60e70716793133e9-43" value="Yes" style="edgeStyle=orthogonalEdgeStyle;rounded=0;html=1;labelBackgroundColor=none;startSize=5;endArrow=classicThin;endFill=1;endSize=5;jettySize=auto;orthogonalLoop=1;strokeWidth=1;fontFamily=Verdana;fontSize=8" parent="1" source="60e70716793133e9-14" target="60e70716793133e9-15" edge="1">
          <mxGeometry x="-0.6667" y="10" relative="1" as="geometry">
            <mxPoint as="offset" />
          </mxGeometry>
        </mxCell>
        <mxCell id="60e70716793133e9-44" value="No" style="edgeStyle=orthogonalEdgeStyle;rounded=0;html=1;labelBackgroundColor=none;startSize=5;endArrow=classicThin;endFill=1;endSize=5;jettySize=auto;orthogonalLoop=1;strokeWidth=1;fontFamily=Verdana;fontSize=8" parent="1" source="60e70716793133e9-14" target="60e70716793133e9-16" edge="1">
          <mxGeometry x="-0.5" y="-10" relative="1" as="geometry">
            <mxPoint as="offset" />
          </mxGeometry>
        </mxCell>
        <mxCell id="60e70716793133e9-14" value="Material&amp;nbsp;&lt;div&gt;quantities not&amp;nbsp;&lt;/div&gt;&lt;div&gt;in stock?&lt;/div&gt;" style="rhombus;whiteSpace=wrap;html=1;rounded=0;shadow=1;labelBackgroundColor=none;strokeWidth=1;fontFamily=Verdana;fontSize=8;align=center;" parent="1" vertex="1">
          <mxGeometry x="290" y="570" width="100" height="60" as="geometry" />
        </mxCell>
        <mxCell id="60e70716793133e9-45" style="edgeStyle=orthogonalEdgeStyle;rounded=0;html=1;labelBackgroundColor=none;startSize=5;endArrow=classicThin;endFill=1;endSize=5;jettySize=auto;orthogonalLoop=1;strokeWidth=1;fontFamily=Verdana;fontSize=8" parent="1" source="60e70716793133e9-15" target="60e70716793133e9-16" edge="1">
          <mxGeometry relative="1" as="geometry">
            <Array as="points">
              <mxPoint x="510" y="650" />
              <mxPoint x="340" y="650" />
            </Array>
          </mxGeometry>
        </mxCell>
        <mxCell id="60e70716793133e9-15" value="Procedure or&amp;nbsp;&lt;div&gt;transfer materials&lt;/div&gt;" style="whiteSpace=wrap;html=1;rounded=0;shadow=1;labelBackgroundColor=none;strokeWidth=1;fontFamily=Verdana;fontSize=8;align=center;" parent="1" vertex="1">
          <mxGeometry x="450" y="580" width="120" height="40" as="geometry" />
        </mxCell>
        <mxCell id="60e70716793133e9-46" style="edgeStyle=orthogonalEdgeStyle;rounded=0;html=1;labelBackgroundColor=none;startSize=5;endArrow=classicThin;endFill=1;endSize=5;jettySize=auto;orthogonalLoop=1;strokeWidth=1;fontFamily=Verdana;fontSize=8" parent="1" source="60e70716793133e9-16" target="60e70716793133e9-17" edge="1">
          <mxGeometry relative="1" as="geometry" />
        </mxCell>
        <mxCell id="60e70716793133e9-16" value="Change status to&lt;div&gt;In Process&lt;/div&gt;" style="whiteSpace=wrap;html=1;rounded=0;shadow=1;labelBackgroundColor=none;strokeWidth=1;fontFamily=Verdana;fontSize=8;align=center;" parent="1" vertex="1">
          <mxGeometry x="280" y="670" width="120" height="40" as="geometry" />
        </mxCell>
        <mxCell id="60e70716793133e9-47" value="Yes" style="edgeStyle=orthogonalEdgeStyle;rounded=0;html=1;labelBackgroundColor=none;startSize=5;endArrow=classicThin;endFill=1;endSize=5;jettySize=auto;orthogonalLoop=1;strokeWidth=1;fontFamily=Verdana;fontSize=8" parent="1" source="60e70716793133e9-17" target="60e70716793133e9-18" edge="1">
          <mxGeometry x="-0.6667" y="10" relative="1" as="geometry">
            <mxPoint as="offset" />
          </mxGeometry>
        </mxCell>
        <mxCell id="60e70716793133e9-50" value="No" style="edgeStyle=orthogonalEdgeStyle;rounded=0;html=1;labelBackgroundColor=none;startSize=5;endArrow=classicThin;endFill=1;endSize=5;jettySize=auto;orthogonalLoop=1;strokeWidth=1;fontFamily=Verdana;fontSize=8" parent="1" source="60e70716793133e9-17" target="60e70716793133e9-19" edge="1">
          <mxGeometry x="-1" y="-10" relative="1" as="geometry">
            <mxPoint as="offset" />
          </mxGeometry>
        </mxCell>
        <mxCell id="60e70716793133e9-17" value="Step&amp;nbsp;&lt;div&gt;performed by&amp;nbsp;&lt;/div&gt;&lt;div&gt;outside&amp;nbsp;&lt;/div&gt;&lt;div&gt;vendor?&lt;/div&gt;" style="rhombus;whiteSpace=wrap;html=1;rounded=0;shadow=1;labelBackgroundColor=none;strokeWidth=1;fontFamily=Verdana;fontSize=8;align=center;" parent="1" vertex="1">
          <mxGeometry x="290" y="740" width="100" height="60" as="geometry" />
        </mxCell>
        <mxCell id="60e70716793133e9-48" style="edgeStyle=orthogonalEdgeStyle;rounded=0;html=1;labelBackgroundColor=none;startSize=5;endArrow=classicThin;endFill=1;endSize=5;jettySize=auto;orthogonalLoop=1;strokeWidth=1;fontFamily=Verdana;fontSize=8" parent="1" source="60e70716793133e9-18" target="60e70716793133e9-20" edge="1">
          <mxGeometry relative="1" as="geometry" />
        </mxCell>
        <mxCell id="60e70716793133e9-18" value="Add or adjust vendor costs" style="whiteSpace=wrap;html=1;rounded=0;shadow=1;labelBackgroundColor=none;strokeWidth=1;fontFamily=Verdana;fontSize=8;align=center;" parent="1" vertex="1">
          <mxGeometry x="450" y="750" width="120" height="40" as="geometry" />
        </mxCell>
        <mxCell id="60e70716793133e9-52" style="edgeStyle=orthogonalEdgeStyle;rounded=0;html=1;labelBackgroundColor=none;startSize=5;endArrow=classicThin;endFill=1;endSize=5;jettySize=auto;orthogonalLoop=1;strokeWidth=1;fontFamily=Verdana;fontSize=8" parent="1" source="60e70716793133e9-19" target="60e70716793133e9-21" edge="1">
          <mxGeometry relative="1" as="geometry" />
        </mxCell>
        <mxCell id="60e70716793133e9-19" value="Perform work&amp;nbsp;&lt;div&gt;order step&lt;/div&gt;" style="shape=trapezoid;whiteSpace=wrap;html=1;rounded=0;shadow=1;labelBackgroundColor=none;strokeWidth=1;fontFamily=Verdana;fontSize=8;align=center;flipV=1;" parent="1" vertex="1">
          <mxGeometry x="280" y="840" width="120" height="60" as="geometry" />
        </mxCell>
        <mxCell id="60e70716793133e9-49" style="edgeStyle=orthogonalEdgeStyle;rounded=0;html=1;labelBackgroundColor=none;startSize=5;endArrow=classicThin;endFill=1;endSize=5;jettySize=auto;orthogonalLoop=1;strokeWidth=1;fontFamily=Verdana;fontSize=8" parent="1" source="60e70716793133e9-20" target="60e70716793133e9-22" edge="1">
          <mxGeometry relative="1" as="geometry" />
        </mxCell>
        <mxCell id="60e70716793133e9-53" style="edgeStyle=orthogonalEdgeStyle;rounded=0;html=1;labelBackgroundColor=none;startSize=5;endArrow=classicThin;endFill=1;endSize=5;jettySize=auto;orthogonalLoop=1;strokeWidth=1;fontFamily=Verdana;fontSize=8" parent="1" source="60e70716793133e9-20" target="60e70716793133e9-27" edge="1">
          <mxGeometry relative="1" as="geometry">
            <Array as="points">
              <mxPoint x="510" y="920" />
              <mxPoint x="680" y="920" />
            </Array>
          </mxGeometry>
        </mxCell>
        <mxCell id="60e70716793133e9-20" value="Ship materials&amp;nbsp;&lt;div&gt;to vendor&lt;/div&gt;" style="rounded=1;whiteSpace=wrap;html=1;shadow=1;labelBackgroundColor=none;strokeWidth=1;fontFamily=Verdana;fontSize=8;align=center;" parent="1" vertex="1">
          <mxGeometry x="450" y="850" width="120" height="40" as="geometry" />
        </mxCell>
        <mxCell id="60e70716793133e9-51" value="Yes" style="edgeStyle=orthogonalEdgeStyle;rounded=0;html=1;labelBackgroundColor=none;startSize=5;endArrow=classicThin;endFill=1;endSize=5;jettySize=auto;orthogonalLoop=1;strokeWidth=1;fontFamily=Verdana;fontSize=8" parent="1" source="60e70716793133e9-21" target="60e70716793133e9-17" edge="1">
          <mxGeometry x="-0.6924" y="-20" relative="1" as="geometry">
            <Array as="points">
              <mxPoint x="260" y="969.9999999999998" />
              <mxPoint x="260" y="770" />
            </Array>
            <mxPoint as="offset" />
          </mxGeometry>
        </mxCell>
        <mxCell id="60e70716793133e9-54" value="No" style="edgeStyle=orthogonalEdgeStyle;rounded=0;html=1;labelBackgroundColor=none;startSize=5;endArrow=classicThin;endFill=1;endSize=5;jettySize=auto;orthogonalLoop=1;strokeWidth=1;fontFamily=Verdana;fontSize=8" parent="1" source="60e70716793133e9-21" target="60e70716793133e9-23" edge="1">
          <mxGeometry x="-1" y="-10" relative="1" as="geometry">
            <mxPoint as="offset" />
          </mxGeometry>
        </mxCell>
        <mxCell id="60e70716793133e9-21" value="Additional&amp;nbsp;&lt;div&gt;processing&amp;nbsp;&lt;/div&gt;&lt;div&gt;required?&lt;/div&gt;" style="rhombus;whiteSpace=wrap;html=1;rounded=0;shadow=1;labelBackgroundColor=none;strokeWidth=1;fontFamily=Verdana;fontSize=8;align=center;" parent="1" vertex="1">
          <mxGeometry x="290" y="940" width="100" height="60" as="geometry" />
        </mxCell>
        <mxCell id="60e70716793133e9-58" style="edgeStyle=orthogonalEdgeStyle;rounded=0;html=1;labelBackgroundColor=none;startSize=5;endArrow=classicThin;endFill=1;endSize=5;jettySize=auto;orthogonalLoop=1;strokeWidth=1;fontFamily=Verdana;fontSize=8" parent="1" source="60e70716793133e9-22" target="60e70716793133e9-24" edge="1">
          <mxGeometry relative="1" as="geometry" />
        </mxCell>
        <mxCell id="60e70716793133e9-22" value="Perform work&amp;nbsp;&lt;div&gt;order step&lt;/div&gt;" style="shape=trapezoid;whiteSpace=wrap;html=1;rounded=0;shadow=1;labelBackgroundColor=none;strokeWidth=1;fontFamily=Verdana;fontSize=8;align=center;flipV=1;" parent="1" vertex="1">
          <mxGeometry x="450" y="940" width="120" height="60" as="geometry" />
        </mxCell>
        <mxCell id="60e70716793133e9-55" style="edgeStyle=orthogonalEdgeStyle;rounded=0;html=1;labelBackgroundColor=none;startSize=5;endArrow=classicThin;endFill=1;endSize=5;jettySize=auto;orthogonalLoop=1;strokeWidth=1;fontFamily=Verdana;fontSize=8" parent="1" source="60e70716793133e9-23" target="60e70716793133e9-25" edge="1">
          <mxGeometry relative="1" as="geometry" />
        </mxCell>
        <mxCell id="60e70716793133e9-23" value="Receive info stock" style="rounded=1;whiteSpace=wrap;html=1;shadow=1;labelBackgroundColor=none;strokeWidth=1;fontFamily=Verdana;fontSize=8;align=center;" parent="1" vertex="1">
          <mxGeometry x="280" y="1040" width="120" height="40" as="geometry" />
        </mxCell>
        <mxCell id="60e70716793133e9-59" style="edgeStyle=orthogonalEdgeStyle;rounded=0;html=1;labelBackgroundColor=none;startSize=5;endArrow=classicThin;endFill=1;endSize=5;jettySize=auto;orthogonalLoop=1;strokeWidth=1;fontFamily=Verdana;fontSize=8" parent="1" source="60e70716793133e9-24" target="60e70716793133e9-26" edge="1">
          <mxGeometry relative="1" as="geometry" />
        </mxCell>
        <mxCell id="60e70716793133e9-24" value="Receive product&amp;nbsp;&lt;div&gt;from vendor&lt;/div&gt;" style="rounded=1;whiteSpace=wrap;html=1;shadow=1;labelBackgroundColor=none;strokeWidth=1;fontFamily=Verdana;fontSize=8;align=center;" parent="1" vertex="1">
          <mxGeometry x="450" y="1040" width="120" height="40" as="geometry" />
        </mxCell>
        <mxCell id="60e70716793133e9-56" style="edgeStyle=orthogonalEdgeStyle;rounded=0;html=1;labelBackgroundColor=none;startSize=5;endArrow=classicThin;endFill=1;endSize=5;jettySize=auto;orthogonalLoop=1;strokeWidth=1;fontFamily=Verdana;fontSize=8" parent="1" source="60e70716793133e9-25" target="60e70716793133e9-28" edge="1">
          <mxGeometry relative="1" as="geometry" />
        </mxCell>
        <mxCell id="60e70716793133e9-25" value="Ship product on order if needed" style="rounded=1;whiteSpace=wrap;html=1;shadow=1;labelBackgroundColor=none;strokeWidth=1;fontFamily=Verdana;fontSize=8;align=center;" parent="1" vertex="1">
          <mxGeometry x="280" y="1120" width="120" height="40" as="geometry" />
        </mxCell>
        <mxCell id="60e70716793133e9-60" value="No" style="edgeStyle=orthogonalEdgeStyle;rounded=0;html=1;labelBackgroundColor=none;startSize=5;endArrow=classicThin;endFill=1;endSize=5;jettySize=auto;orthogonalLoop=1;strokeWidth=1;fontFamily=Verdana;fontSize=8" parent="1" source="60e70716793133e9-26" target="60e70716793133e9-29" edge="1">
          <mxGeometry x="0.2" y="14" relative="1" as="geometry">
            <mxPoint x="-24" y="-10" as="offset" />
          </mxGeometry>
        </mxCell>
        <mxCell id="60e70716793133e9-61" value="Yes" style="edgeStyle=orthogonalEdgeStyle;rounded=0;html=1;labelBackgroundColor=none;startSize=5;endArrow=classicThin;endFill=1;endSize=5;jettySize=auto;orthogonalLoop=1;strokeWidth=1;fontFamily=Verdana;fontSize=8" parent="1" source="60e70716793133e9-26" target="60e70716793133e9-27" edge="1">
          <mxGeometry x="-0.6667" y="10" relative="1" as="geometry">
            <mxPoint as="offset" />
          </mxGeometry>
        </mxCell>
        <mxCell id="60e70716793133e9-26" value="Only partial&amp;nbsp;&lt;div&gt;quality&amp;nbsp;&lt;/div&gt;&lt;div&gt;received?&lt;/div&gt;" style="rhombus;whiteSpace=wrap;html=1;rounded=0;shadow=1;labelBackgroundColor=none;strokeWidth=1;fontFamily=Verdana;fontSize=8;align=center;" parent="1" vertex="1">
          <mxGeometry x="460" y="1110" width="100" height="60" as="geometry" />
        </mxCell>
        <mxCell id="60e70716793133e9-27" value="Create work&amp;nbsp;&lt;div&gt;order backorder&lt;/div&gt;" style="whiteSpace=wrap;html=1;rounded=0;shadow=1;labelBackgroundColor=none;strokeWidth=1;fontFamily=Verdana;fontSize=8;align=center;" parent="1" vertex="1">
          <mxGeometry x="620" y="1120" width="120" height="40" as="geometry" />
        </mxCell>
        <mxCell id="60e70716793133e9-57" style="edgeStyle=orthogonalEdgeStyle;rounded=0;html=1;labelBackgroundColor=none;startSize=5;endArrow=classicThin;endFill=1;endSize=5;jettySize=auto;orthogonalLoop=1;strokeWidth=1;fontFamily=Verdana;fontSize=8" parent="1" source="60e70716793133e9-28" target="60e70716793133e9-30" edge="1">
          <mxGeometry relative="1" as="geometry" />
        </mxCell>
        <mxCell id="60e70716793133e9-28" value="Change status to&lt;div&gt;Complete&lt;/div&gt;" style="whiteSpace=wrap;html=1;rounded=0;shadow=1;labelBackgroundColor=none;strokeWidth=1;fontFamily=Verdana;fontSize=8;align=center;" parent="1" vertex="1">
          <mxGeometry x="280" y="1200" width="120" height="40" as="geometry" />
        </mxCell>
        <mxCell id="60e70716793133e9-62" style="edgeStyle=orthogonalEdgeStyle;rounded=0;html=1;labelBackgroundColor=none;startSize=5;endArrow=classicThin;endFill=1;endSize=5;jettySize=auto;orthogonalLoop=1;strokeWidth=1;fontFamily=Verdana;fontSize=8" parent="1" source="60e70716793133e9-29" target="60e70716793133e9-21" edge="1">
          <mxGeometry relative="1" as="geometry">
            <Array as="points">
              <mxPoint x="430" y="1220" />
              <mxPoint x="430" y="920" />
              <mxPoint x="340" y="920" />
            </Array>
          </mxGeometry>
        </mxCell>
        <mxCell id="60e70716793133e9-29" value="Pay vendor invoice" style="rounded=1;whiteSpace=wrap;html=1;shadow=1;labelBackgroundColor=none;strokeWidth=1;fontFamily=Verdana;fontSize=8;align=center;" parent="1" vertex="1">
          <mxGeometry x="450" y="1200" width="120" height="40" as="geometry" />
        </mxCell>
        <mxCell id="60e70716793133e9-30" value="End" style="strokeWidth=1;html=1;shape=mxgraph.flowchart.terminator;whiteSpace=wrap;rounded=0;shadow=1;labelBackgroundColor=none;fontFamily=Verdana;fontSize=8;align=center;" parent="1" vertex="1">
          <mxGeometry x="310" y="1290" width="60" height="30" as="geometry" />
        </mxCell>
        <mxCell id="oZMABY1-ZJEsu0WesDKt-8" value="" style="endArrow=none;dashed=1;html=1;rounded=0;" parent="1" edge="1">
          <mxGeometry width="50" height="50" relative="1" as="geometry">
            <mxPoint x="70.5" y="2091" as="sourcePoint" />
            <mxPoint x="710.5" y="2091" as="targetPoint" />
          </mxGeometry>
        </mxCell>
        <mxCell id="oZMABY1-ZJEsu0WesDKt-13" value="" style="endArrow=none;dashed=1;html=1;rounded=0;" parent="1" edge="1">
          <mxGeometry width="50" height="50" relative="1" as="geometry">
            <mxPoint x="72" y="1947" as="sourcePoint" />
            <mxPoint x="712" y="1947" as="targetPoint" />
          </mxGeometry>
        </mxCell>
        <mxCell id="oZMABY1-ZJEsu0WesDKt-20" value="" style="endArrow=none;dashed=1;html=1;rounded=0;" parent="1" edge="1">
          <mxGeometry width="50" height="50" relative="1" as="geometry">
            <mxPoint x="70" y="1870" as="sourcePoint" />
            <mxPoint x="710" y="1870" as="targetPoint" />
          </mxGeometry>
        </mxCell>
        <mxCell id="oZMABY1-ZJEsu0WesDKt-34" value="数据库" style="text;strokeColor=none;align=center;fillColor=none;html=1;verticalAlign=middle;whiteSpace=wrap;rounded=0;" parent="1" vertex="1">
          <mxGeometry x="80" y="2120" width="70" height="30" as="geometry" />
        </mxCell>
        <mxCell id="oZMABY1-ZJEsu0WesDKt-36" value="后端" style="text;strokeColor=none;align=center;fillColor=none;html=1;verticalAlign=middle;whiteSpace=wrap;rounded=0;" parent="1" vertex="1">
          <mxGeometry x="75" y="1990" width="60" height="30" as="geometry" />
        </mxCell>
        <mxCell id="oZMABY1-ZJEsu0WesDKt-37" value="交互层" style="text;strokeColor=none;align=center;fillColor=none;html=1;verticalAlign=middle;whiteSpace=wrap;rounded=0;" parent="1" vertex="1">
          <mxGeometry x="77" y="1894" width="60" height="30" as="geometry" />
        </mxCell>
        <mxCell id="oZMABY1-ZJEsu0WesDKt-38" value="前端UI" style="text;strokeColor=none;align=center;fillColor=none;html=1;verticalAlign=middle;whiteSpace=wrap;rounded=0;" parent="1" vertex="1">
          <mxGeometry x="77" y="1826" width="60" height="30" as="geometry" />
        </mxCell>
        <mxCell id="nyQSVQVMoenpCRz5e3az-35" value="" style="rounded=1;whiteSpace=wrap;html=1;" parent="1" vertex="1">
          <mxGeometry x="150" y="1817" width="520" height="45" as="geometry" />
        </mxCell>
        <mxCell id="nyQSVQVMoenpCRz5e3az-37" value="Element-UI" style="rounded=1;whiteSpace=wrap;html=1;" parent="1" vertex="1">
          <mxGeometry x="254" y="1825.5" width="87" height="28" as="geometry" />
        </mxCell>
        <mxCell id="nyQSVQVMoenpCRz5e3az-38" value="Vuestic-UI" style="rounded=1;whiteSpace=wrap;html=1;" parent="1" vertex="1">
          <mxGeometry x="457" y="1824" width="87" height="28" as="geometry" />
        </mxCell>
        <mxCell id="nyQSVQVMoenpCRz5e3az-40" value="" style="rounded=1;whiteSpace=wrap;html=1;" parent="1" vertex="1">
          <mxGeometry x="149" y="1881" width="294" height="56" as="geometry" />
        </mxCell>
        <mxCell id="nyQSVQVMoenpCRz5e3az-43" value="Vue" style="rounded=1;whiteSpace=wrap;html=1;" parent="1" vertex="1">
          <mxGeometry x="157" y="1896" width="87" height="28" as="geometry" />
        </mxCell>
        <mxCell id="nyQSVQVMoenpCRz5e3az-44" value="Pinia" style="rounded=1;whiteSpace=wrap;html=1;" parent="1" vertex="1">
          <mxGeometry x="254" y="1896" width="87" height="28" as="geometry" />
        </mxCell>
        <mxCell id="nyQSVQVMoenpCRz5e3az-45" value="Vue-router" style="rounded=1;whiteSpace=wrap;html=1;" parent="1" vertex="1">
          <mxGeometry x="347" y="1896" width="87" height="28" as="geometry" />
        </mxCell>
        <mxCell id="nyQSVQVMoenpCRz5e3az-46" value="" style="rounded=1;whiteSpace=wrap;html=1;" parent="1" vertex="1">
          <mxGeometry x="455" y="1880" width="213" height="57" as="geometry" />
        </mxCell>
        <mxCell id="nyQSVQVMoenpCRz5e3az-48" value="POST请求" style="rounded=1;whiteSpace=wrap;html=1;" parent="1" vertex="1">
          <mxGeometry x="521" y="1896" width="66.5" height="28" as="geometry" />
        </mxCell>
        <mxCell id="nyQSVQVMoenpCRz5e3az-49" value="GET请求" style="rounded=1;whiteSpace=wrap;html=1;" parent="1" vertex="1">
          <mxGeometry x="601" y="1896" width="58" height="28" as="geometry" />
        </mxCell>
        <mxCell id="nyQSVQVMoenpCRz5e3az-50" value="Axios交互" style="text;strokeColor=none;align=center;fillColor=none;html=1;verticalAlign=middle;whiteSpace=wrap;rounded=0;" parent="1" vertex="1">
          <mxGeometry x="460" y="1895" width="60" height="30" as="geometry" />
        </mxCell>
        <mxCell id="nyQSVQVMoenpCRz5e3az-51" value="" style="rounded=1;whiteSpace=wrap;html=1;" parent="1" vertex="1">
          <mxGeometry x="148" y="1956" width="523" height="127" as="geometry" />
        </mxCell>
        <mxCell id="nyQSVQVMoenpCRz5e3az-52" value="抓取与处理核心模块" style="rounded=1;whiteSpace=wrap;html=1;" parent="1" vertex="1">
          <mxGeometry x="161.5" y="2040" width="153.5" height="32" as="geometry" />
        </mxCell>
        <mxCell id="nyQSVQVMoenpCRz5e3az-54" value="事件脉络图生成核心模块" style="rounded=1;whiteSpace=wrap;html=1;" parent="1" vertex="1">
          <mxGeometry x="332" y="2040" width="139" height="32" as="geometry" />
        </mxCell>
        <mxCell id="nyQSVQVMoenpCRz5e3az-55" value="API接口" style="rounded=1;whiteSpace=wrap;html=1;" parent="1" vertex="1">
          <mxGeometry x="161.5" y="1965" width="494.5" height="28" as="geometry" />
        </mxCell>
        <mxCell id="nyQSVQVMoenpCRz5e3az-56" value="controller层（响应请求，调用相应的方法）" style="rounded=1;whiteSpace=wrap;html=1;" parent="1" vertex="1">
          <mxGeometry x="161.5" y="2002.5" width="494.5" height="28" as="geometry" />
        </mxCell>
        <mxCell id="nyQSVQVMoenpCRz5e3az-57" value="数据库操作模块" style="rounded=1;whiteSpace=wrap;html=1;" parent="1" vertex="1">
          <mxGeometry x="490" y="2040" width="166" height="32" as="geometry" />
        </mxCell>
        <mxCell id="nyQSVQVMoenpCRz5e3az-60" value="" style="rounded=1;whiteSpace=wrap;html=1;" parent="1" vertex="1">
          <mxGeometry x="150" y="2102" width="521" height="60" as="geometry" />
        </mxCell>
        <mxCell id="nyQSVQVMoenpCRz5e3az-61" value="mongoDB" style="strokeWidth=2;html=1;shape=mxgraph.flowchart.database;whiteSpace=wrap;" parent="1" vertex="1">
          <mxGeometry x="272" y="2115" width="60" height="40" as="geometry" />
        </mxCell>
        <mxCell id="nyQSVQVMoenpCRz5e3az-62" value="Redis" style="strokeWidth=2;html=1;shape=mxgraph.flowchart.database;whiteSpace=wrap;" parent="1" vertex="1">
          <mxGeometry x="473" y="2115" width="60" height="40" as="geometry" />
        </mxCell>
        <mxCell id="_eYxPK8worEGDINMEh3w-9" style="edgeStyle=orthogonalEdgeStyle;rounded=0;orthogonalLoop=1;jettySize=auto;html=1;exitX=0.5;exitY=1;exitDx=0;exitDy=0;entryX=0.5;entryY=0;entryDx=0;entryDy=0;" parent="1" source="_eYxPK8worEGDINMEh3w-2" target="_eYxPK8worEGDINMEh3w-3" edge="1">
          <mxGeometry relative="1" as="geometry" />
        </mxCell>
        <mxCell id="_eYxPK8worEGDINMEh3w-2" value="批量url" style="shape=parallelogram;perimeter=parallelogramPerimeter;whiteSpace=wrap;html=1;fixedSize=1;" parent="1" vertex="1">
          <mxGeometry x="133" y="2647" width="120" height="60" as="geometry" />
        </mxCell>
        <mxCell id="_eYxPK8worEGDINMEh3w-10" style="edgeStyle=orthogonalEdgeStyle;rounded=0;orthogonalLoop=1;jettySize=auto;html=1;entryX=0.5;entryY=0;entryDx=0;entryDy=0;" parent="1" source="_eYxPK8worEGDINMEh3w-3" target="_eYxPK8worEGDINMEh3w-4" edge="1">
          <mxGeometry relative="1" as="geometry" />
        </mxCell>
        <mxCell id="_eYxPK8worEGDINMEh3w-3" value="数据爬取" style="rounded=0;whiteSpace=wrap;html=1;" parent="1" vertex="1">
          <mxGeometry x="133" y="2754" width="120" height="60" as="geometry" />
        </mxCell>
        <mxCell id="_eYxPK8worEGDINMEh3w-11" style="edgeStyle=orthogonalEdgeStyle;rounded=0;orthogonalLoop=1;jettySize=auto;html=1;entryX=0.5;entryY=0;entryDx=0;entryDy=0;" parent="1" source="_eYxPK8worEGDINMEh3w-4" target="_eYxPK8worEGDINMEh3w-5" edge="1">
          <mxGeometry relative="1" as="geometry" />
        </mxCell>
        <mxCell id="_eYxPK8worEGDINMEh3w-4" value="存储爬取结果到mongodb" style="rounded=0;whiteSpace=wrap;html=1;" parent="1" vertex="1">
          <mxGeometry x="133" y="2866" width="120" height="60" as="geometry" />
        </mxCell>
        <mxCell id="_eYxPK8worEGDINMEh3w-12" value="" style="edgeStyle=orthogonalEdgeStyle;rounded=0;orthogonalLoop=1;jettySize=auto;html=1;" parent="1" source="_eYxPK8worEGDINMEh3w-5" target="_eYxPK8worEGDINMEh3w-6" edge="1">
          <mxGeometry relative="1" as="geometry" />
        </mxCell>
        <mxCell id="_eYxPK8worEGDINMEh3w-5" value="mongodb文本数据增加text_vector字段存储到milvus" style="rounded=0;whiteSpace=wrap;html=1;" parent="1" vertex="1">
          <mxGeometry x="133" y="2978" width="120" height="60" as="geometry" />
        </mxCell>
        <mxCell id="_eYxPK8worEGDINMEh3w-13" value="" style="edgeStyle=orthogonalEdgeStyle;rounded=0;orthogonalLoop=1;jettySize=auto;html=1;" parent="1" source="_eYxPK8worEGDINMEh3w-6" target="_eYxPK8worEGDINMEh3w-8" edge="1">
          <mxGeometry relative="1" as="geometry" />
        </mxCell>
        <mxCell id="_eYxPK8worEGDINMEh3w-6" value="话题聚合成多个话题" style="rounded=0;whiteSpace=wrap;html=1;" parent="1" vertex="1">
          <mxGeometry x="133" y="3088" width="120" height="60" as="geometry" />
        </mxCell>
        <mxCell id="_eYxPK8worEGDINMEh3w-8" value="多个话题生成脉络图" style="shape=parallelogram;perimeter=parallelogramPerimeter;whiteSpace=wrap;html=1;fixedSize=1;" parent="1" vertex="1">
          <mxGeometry x="124" y="3202" width="138" height="60" as="geometry" />
        </mxCell>
        <mxCell id="_eYxPK8worEGDINMEh3w-15" value="整个流程基于描述同一个事件的相关url" style="text;strokeColor=none;align=center;fillColor=none;html=1;verticalAlign=middle;whiteSpace=wrap;rounded=0;" parent="1" vertex="1">
          <mxGeometry x="140" y="2559" width="132" height="75" as="geometry" />
        </mxCell>
        <mxCell id="_eYxPK8worEGDINMEh3w-16" value="话题聚合成多个话题" style="text;strokeColor=none;align=center;fillColor=none;html=1;verticalAlign=middle;whiteSpace=wrap;rounded=0;" parent="1" vertex="1">
          <mxGeometry x="390" y="2586" width="83" height="26" as="geometry" />
        </mxCell>
        <mxCell id="_eYxPK8worEGDINMEh3w-17" value="单个话题信息形成" style="text;strokeColor=none;align=center;fillColor=none;html=1;verticalAlign=middle;whiteSpace=wrap;rounded=0;" parent="1" vertex="1">
          <mxGeometry x="615" y="2583.5" width="83" height="26" as="geometry" />
        </mxCell>
        <mxCell id="_eYxPK8worEGDINMEh3w-18" value="脉络图生成" style="text;strokeColor=none;align=center;fillColor=none;html=1;verticalAlign=middle;whiteSpace=wrap;rounded=0;" parent="1" vertex="1">
          <mxGeometry x="845" y="2583.5" width="83" height="26" as="geometry" />
        </mxCell>
        <mxCell id="_eYxPK8worEGDINMEh3w-19" value="" style="ellipse;whiteSpace=wrap;html=1;" parent="1" vertex="1">
          <mxGeometry x="140" y="2239" width="577" height="269" as="geometry" />
        </mxCell>
        <mxCell id="_eYxPK8worEGDINMEh3w-21" value="" style="ellipse;whiteSpace=wrap;html=1;" parent="1" vertex="1">
          <mxGeometry x="231" y="2351" width="174" height="97" as="geometry" />
        </mxCell>
        <mxCell id="_eYxPK8worEGDINMEh3w-22" value="" style="ellipse;whiteSpace=wrap;html=1;" parent="1" vertex="1">
          <mxGeometry x="387" y="2249" width="181" height="93" as="geometry" />
        </mxCell>
        <mxCell id="_eYxPK8worEGDINMEh3w-23" value="" style="ellipse;whiteSpace=wrap;html=1;" parent="1" vertex="1">
          <mxGeometry x="434" y="2361" width="219" height="117" as="geometry" />
        </mxCell>
        <mxCell id="_eYxPK8worEGDINMEh3w-24" value="文章c" style="ellipse;whiteSpace=wrap;html=1;" parent="1" vertex="1">
          <mxGeometry x="418" y="2290" width="50" height="25" as="geometry" />
        </mxCell>
        <mxCell id="_eYxPK8worEGDINMEh3w-25" value="话题1" style="text;strokeColor=none;align=center;fillColor=none;html=1;verticalAlign=middle;whiteSpace=wrap;rounded=0;" parent="1" vertex="1">
          <mxGeometry x="205" y="2293" width="60" height="30" as="geometry" />
        </mxCell>
        <mxCell id="_eYxPK8worEGDINMEh3w-28" value="文章b" style="ellipse;whiteSpace=wrap;html=1;" parent="1" vertex="1">
          <mxGeometry x="500" y="2283" width="50" height="22" as="geometry" />
        </mxCell>
        <mxCell id="_eYxPK8worEGDINMEh3w-29" value="文章a" style="ellipse;whiteSpace=wrap;html=1;" parent="1" vertex="1">
          <mxGeometry x="460" y="2255" width="47" height="28" as="geometry" />
        </mxCell>
        <mxCell id="_eYxPK8worEGDINMEh3w-30" value="文章3" style="ellipse;whiteSpace=wrap;html=1;" parent="1" vertex="1">
          <mxGeometry x="343" y="2377" width="47" height="27" as="geometry" />
        </mxCell>
        <mxCell id="_eYxPK8worEGDINMEh3w-31" value="文章2" style="ellipse;whiteSpace=wrap;html=1;" parent="1" vertex="1">
          <mxGeometry x="246" y="2395" width="54" height="27" as="geometry" />
        </mxCell>
        <mxCell id="_eYxPK8worEGDINMEh3w-32" value="文章1" style="ellipse;whiteSpace=wrap;html=1;" parent="1" vertex="1">
          <mxGeometry x="294.5" y="2357.25" width="47" height="32.5" as="geometry" />
        </mxCell>
        <mxCell id="_eYxPK8worEGDINMEh3w-33" value="......" style="text;strokeColor=none;align=center;fillColor=none;html=1;verticalAlign=middle;whiteSpace=wrap;rounded=0;" parent="1" vertex="1">
          <mxGeometry x="303" y="2398" width="60" height="30" as="geometry" />
        </mxCell>
        <mxCell id="_eYxPK8worEGDINMEh3w-34" value="......" style="text;strokeColor=none;align=center;fillColor=none;html=1;verticalAlign=middle;whiteSpace=wrap;rounded=0;" parent="1" vertex="1">
          <mxGeometry x="461" y="2295" width="60" height="30" as="geometry" />
        </mxCell>
        <mxCell id="_eYxPK8worEGDINMEh3w-35" value="......" style="text;strokeColor=none;align=center;fillColor=none;html=1;verticalAlign=middle;whiteSpace=wrap;rounded=0;" parent="1" vertex="1">
          <mxGeometry x="510" y="2404" width="60" height="30" as="geometry" />
        </mxCell>
        <mxCell id="_eYxPK8worEGDINMEh3w-36" value="......" style="text;strokeColor=none;align=center;fillColor=none;html=1;verticalAlign=middle;whiteSpace=wrap;rounded=0;" parent="1" vertex="1">
          <mxGeometry x="604" y="2319" width="60" height="30" as="geometry" />
        </mxCell>
        <mxCell id="fJewr03WWqxosDNzEVeh-1" value="事件1" style="text;strokeColor=none;align=center;fillColor=none;html=1;verticalAlign=middle;whiteSpace=wrap;rounded=0;" parent="1" vertex="1">
          <mxGeometry x="243" y="2361" width="60" height="30" as="geometry" />
        </mxCell>
        <mxCell id="fJewr03WWqxosDNzEVeh-2" value="事件1" style="text;strokeColor=none;align=center;fillColor=none;html=1;verticalAlign=middle;whiteSpace=wrap;rounded=0;" parent="1" vertex="1">
          <mxGeometry x="398.5" y="2260" width="60" height="30" as="geometry" />
        </mxCell>
        <mxCell id="fJewr03WWqxosDNzEVeh-3" value="事件3" style="text;strokeColor=none;align=center;fillColor=none;html=1;verticalAlign=middle;whiteSpace=wrap;rounded=0;" parent="1" vertex="1">
          <mxGeometry x="447" y="2382" width="60" height="30" as="geometry" />
        </mxCell>
        <mxCell id="fJewr03WWqxosDNzEVeh-90" value="基于开源情报的数据采集与分析系统" style="rounded=0;whiteSpace=wrap;html=1;fillColor=#fff2cc;strokeColor=#d6b656;" parent="1" vertex="1">
          <mxGeometry x="467.5" y="5338" width="120" height="60" as="geometry" />
        </mxCell>
        <mxCell id="fJewr03WWqxosDNzEVeh-91" value="爬取任务管理" style="rounded=0;whiteSpace=wrap;html=1;fillColor=#fff2cc;strokeColor=#d6b656;" parent="1" vertex="1">
          <mxGeometry x="761" y="5436" width="120" height="60" as="geometry" />
        </mxCell>
        <mxCell id="fJewr03WWqxosDNzEVeh-92" value="主题管理" style="rounded=0;whiteSpace=wrap;html=1;fillColor=#fff2cc;strokeColor=#d6b656;" parent="1" vertex="1">
          <mxGeometry x="173" y="5435" width="120" height="60" as="geometry" />
        </mxCell>
        <mxCell id="fJewr03WWqxosDNzEVeh-93" value="添加爬取任务" style="rounded=0;whiteSpace=wrap;html=1;fillColor=#fff2cc;strokeColor=#d6b656;" parent="1" vertex="1">
          <mxGeometry x="776" y="5525" width="90" height="60" as="geometry" />
        </mxCell>
        <mxCell id="fJewr03WWqxosDNzEVeh-94" value="查看爬取任务" style="rounded=0;whiteSpace=wrap;html=1;fillColor=#fff2cc;strokeColor=#d6b656;" parent="1" vertex="1">
          <mxGeometry x="630" y="5525" width="90" height="60" as="geometry" />
        </mxCell>
        <mxCell id="fJewr03WWqxosDNzEVeh-95" value="批量添加" style="rounded=0;whiteSpace=wrap;html=1;fillColor=#fff2cc;strokeColor=#d6b656;" parent="1" vertex="1">
          <mxGeometry x="830.5" y="5633" width="90" height="60" as="geometry" />
        </mxCell>
        <mxCell id="fJewr03WWqxosDNzEVeh-96" value="单条添加" style="rounded=0;whiteSpace=wrap;html=1;fillColor=#fff2cc;strokeColor=#d6b656;" parent="1" vertex="1">
          <mxGeometry x="735" y="5633" width="90" height="60" as="geometry" />
        </mxCell>
        <mxCell id="fJewr03WWqxosDNzEVeh-97" value="查看单条爬取结果详情" style="rounded=0;whiteSpace=wrap;html=1;fillColor=#fff2cc;strokeColor=#d6b656;" parent="1" vertex="1">
          <mxGeometry x="630" y="5633" width="90" height="60" as="geometry" />
        </mxCell>
        <mxCell id="fJewr03WWqxosDNzEVeh-98" value="查看某个主题详情" style="rounded=0;whiteSpace=wrap;html=1;fillColor=#fff2cc;strokeColor=#d6b656;" parent="1" vertex="1">
          <mxGeometry x="354.5" y="5525" width="90" height="60" as="geometry" />
        </mxCell>
        <mxCell id="fJewr03WWqxosDNzEVeh-99" value="查看所有主题" style="rounded=0;whiteSpace=wrap;html=1;fillColor=#fff2cc;strokeColor=#d6b656;" parent="1" vertex="1">
          <mxGeometry x="73" y="5525" width="90" height="60" as="geometry" />
        </mxCell>
        <mxCell id="fJewr03WWqxosDNzEVeh-100" value="主题关键词top10展示" style="rounded=0;whiteSpace=wrap;html=1;fillColor=#fff2cc;strokeColor=#d6b656;" parent="1" vertex="1">
          <mxGeometry x="291" y="5635" width="90" height="60" as="geometry" />
        </mxCell>
        <mxCell id="fJewr03WWqxosDNzEVeh-101" value="脉络图展示" style="rounded=0;whiteSpace=wrap;html=1;fillColor=#fff2cc;strokeColor=#d6b656;" parent="1" vertex="1">
          <mxGeometry x="389.5" y="5635" width="90" height="60" as="geometry" />
        </mxCell>
        <mxCell id="fJewr03WWqxosDNzEVeh-102" value="活跃作者显示" style="rounded=0;whiteSpace=wrap;html=1;" parent="1" vertex="1">
          <mxGeometry x="485.5" y="5635" width="90" height="60" as="geometry" />
        </mxCell>
        <mxCell id="fJewr03WWqxosDNzEVeh-103" value="查看爬取结果详情" style="rounded=0;whiteSpace=wrap;html=1;fillColor=#fff2cc;strokeColor=#d6b656;" parent="1" vertex="1">
          <mxGeometry x="73" y="5635" width="90" height="60" as="geometry" />
        </mxCell>
        <mxCell id="fJewr03WWqxosDNzEVeh-104" value="" style="endArrow=none;html=1;rounded=0;entryX=0.5;entryY=1;entryDx=0;entryDy=0;exitX=0.5;exitY=0;exitDx=0;exitDy=0;edgeStyle=orthogonalEdgeStyle;" parent="1" source="fJewr03WWqxosDNzEVeh-92" target="fJewr03WWqxosDNzEVeh-90" edge="1">
          <mxGeometry width="50" height="50" relative="1" as="geometry">
            <mxPoint x="466.5" y="5461" as="sourcePoint" />
            <mxPoint x="516.5" y="5411" as="targetPoint" />
          </mxGeometry>
        </mxCell>
        <mxCell id="fJewr03WWqxosDNzEVeh-105" value="" style="endArrow=none;html=1;rounded=0;entryX=0.5;entryY=1;entryDx=0;entryDy=0;exitX=0.5;exitY=0;exitDx=0;exitDy=0;edgeStyle=orthogonalEdgeStyle;" parent="1" source="fJewr03WWqxosDNzEVeh-91" target="fJewr03WWqxosDNzEVeh-90" edge="1">
          <mxGeometry width="50" height="50" relative="1" as="geometry">
            <mxPoint x="520.5" y="5499" as="sourcePoint" />
            <mxPoint x="570.5" y="5449" as="targetPoint" />
          </mxGeometry>
        </mxCell>
        <mxCell id="fJewr03WWqxosDNzEVeh-106" value="" style="endArrow=none;html=1;rounded=0;entryX=0.5;entryY=1;entryDx=0;entryDy=0;exitX=0.5;exitY=0;exitDx=0;exitDy=0;edgeStyle=orthogonalEdgeStyle;" parent="1" source="fJewr03WWqxosDNzEVeh-99" target="fJewr03WWqxosDNzEVeh-92" edge="1">
          <mxGeometry width="50" height="50" relative="1" as="geometry">
            <mxPoint x="483.5" y="5508" as="sourcePoint" />
            <mxPoint x="533.5" y="5458" as="targetPoint" />
          </mxGeometry>
        </mxCell>
        <mxCell id="fJewr03WWqxosDNzEVeh-107" value="" style="endArrow=none;html=1;rounded=0;exitX=0.5;exitY=1;exitDx=0;exitDy=0;entryX=0.5;entryY=0;entryDx=0;entryDy=0;edgeStyle=orthogonalEdgeStyle;" parent="1" source="fJewr03WWqxosDNzEVeh-92" target="fJewr03WWqxosDNzEVeh-98" edge="1">
          <mxGeometry width="50" height="50" relative="1" as="geometry">
            <mxPoint x="469.5" y="5497" as="sourcePoint" />
            <mxPoint x="519.5" y="5447" as="targetPoint" />
          </mxGeometry>
        </mxCell>
        <mxCell id="fJewr03WWqxosDNzEVeh-108" value="" style="endArrow=none;html=1;rounded=0;entryX=0.5;entryY=1;entryDx=0;entryDy=0;exitX=0.5;exitY=0;exitDx=0;exitDy=0;edgeStyle=orthogonalEdgeStyle;" parent="1" source="fJewr03WWqxosDNzEVeh-94" target="fJewr03WWqxosDNzEVeh-91" edge="1">
          <mxGeometry width="50" height="50" relative="1" as="geometry">
            <mxPoint x="540.5" y="5486" as="sourcePoint" />
            <mxPoint x="590.5" y="5436" as="targetPoint" />
          </mxGeometry>
        </mxCell>
        <mxCell id="fJewr03WWqxosDNzEVeh-109" value="" style="endArrow=none;html=1;rounded=0;entryX=0.5;entryY=1;entryDx=0;entryDy=0;exitX=0.5;exitY=0;exitDx=0;exitDy=0;edgeStyle=orthogonalEdgeStyle;" parent="1" source="fJewr03WWqxosDNzEVeh-93" target="fJewr03WWqxosDNzEVeh-91" edge="1">
          <mxGeometry width="50" height="50" relative="1" as="geometry">
            <mxPoint x="595.5" y="5488" as="sourcePoint" />
            <mxPoint x="645.5" y="5438" as="targetPoint" />
          </mxGeometry>
        </mxCell>
        <mxCell id="fJewr03WWqxosDNzEVeh-110" value="" style="endArrow=none;html=1;rounded=0;entryX=0.5;entryY=1;entryDx=0;entryDy=0;exitX=0.5;exitY=0;exitDx=0;exitDy=0;" parent="1" source="fJewr03WWqxosDNzEVeh-103" target="fJewr03WWqxosDNzEVeh-99" edge="1">
          <mxGeometry width="50" height="50" relative="1" as="geometry">
            <mxPoint x="163.5" y="5607" as="sourcePoint" />
            <mxPoint x="213.5" y="5557" as="targetPoint" />
          </mxGeometry>
        </mxCell>
        <mxCell id="fJewr03WWqxosDNzEVeh-111" value="" style="endArrow=none;html=1;rounded=0;entryX=0.5;entryY=1;entryDx=0;entryDy=0;exitX=0.5;exitY=0;exitDx=0;exitDy=0;edgeStyle=orthogonalEdgeStyle;" parent="1" source="fJewr03WWqxosDNzEVeh-100" target="fJewr03WWqxosDNzEVeh-98" edge="1">
          <mxGeometry width="50" height="50" relative="1" as="geometry">
            <mxPoint x="353.5" y="5611" as="sourcePoint" />
            <mxPoint x="403.5" y="5561" as="targetPoint" />
          </mxGeometry>
        </mxCell>
        <mxCell id="fJewr03WWqxosDNzEVeh-112" value="" style="endArrow=none;html=1;rounded=0;entryX=0.5;entryY=1;entryDx=0;entryDy=0;exitX=0.5;exitY=0;exitDx=0;exitDy=0;edgeStyle=orthogonalEdgeStyle;" parent="1" source="fJewr03WWqxosDNzEVeh-101" target="fJewr03WWqxosDNzEVeh-98" edge="1">
          <mxGeometry width="50" height="50" relative="1" as="geometry">
            <mxPoint x="313.5" y="5598" as="sourcePoint" />
            <mxPoint x="363.5" y="5548" as="targetPoint" />
          </mxGeometry>
        </mxCell>
        <mxCell id="fJewr03WWqxosDNzEVeh-113" value="" style="endArrow=none;html=1;rounded=0;entryX=0.5;entryY=1;entryDx=0;entryDy=0;exitX=0.5;exitY=0;exitDx=0;exitDy=0;edgeStyle=orthogonalEdgeStyle;" parent="1" source="fJewr03WWqxosDNzEVeh-102" target="fJewr03WWqxosDNzEVeh-98" edge="1">
          <mxGeometry width="50" height="50" relative="1" as="geometry">
            <mxPoint x="304.5" y="5618" as="sourcePoint" />
            <mxPoint x="354.5" y="5568" as="targetPoint" />
          </mxGeometry>
        </mxCell>
        <mxCell id="fJewr03WWqxosDNzEVeh-114" value="" style="endArrow=none;html=1;rounded=0;entryX=0.5;entryY=1;entryDx=0;entryDy=0;exitX=0.5;exitY=0;exitDx=0;exitDy=0;edgeStyle=orthogonalEdgeStyle;" parent="1" source="fJewr03WWqxosDNzEVeh-97" target="fJewr03WWqxosDNzEVeh-94" edge="1">
          <mxGeometry width="50" height="50" relative="1" as="geometry">
            <mxPoint x="492.5" y="5593" as="sourcePoint" />
            <mxPoint x="542.5" y="5543" as="targetPoint" />
          </mxGeometry>
        </mxCell>
        <mxCell id="fJewr03WWqxosDNzEVeh-115" value="" style="endArrow=none;html=1;rounded=0;entryX=0.5;entryY=1;entryDx=0;entryDy=0;exitX=0.411;exitY=0.017;exitDx=0;exitDy=0;exitPerimeter=0;edgeStyle=orthogonalEdgeStyle;" parent="1" source="fJewr03WWqxosDNzEVeh-96" target="fJewr03WWqxosDNzEVeh-93" edge="1">
          <mxGeometry width="50" height="50" relative="1" as="geometry">
            <mxPoint x="745.5" y="5613" as="sourcePoint" />
            <mxPoint x="795.5" y="5563" as="targetPoint" />
          </mxGeometry>
        </mxCell>
        <mxCell id="fJewr03WWqxosDNzEVeh-116" value="" style="endArrow=none;html=1;rounded=0;entryX=0.5;entryY=1;entryDx=0;entryDy=0;exitX=0.5;exitY=0;exitDx=0;exitDy=0;edgeStyle=orthogonalEdgeStyle;" parent="1" source="fJewr03WWqxosDNzEVeh-95" target="fJewr03WWqxosDNzEVeh-93" edge="1">
          <mxGeometry width="50" height="50" relative="1" as="geometry">
            <mxPoint x="728.5" y="5594" as="sourcePoint" />
            <mxPoint x="778.5" y="5544" as="targetPoint" />
          </mxGeometry>
        </mxCell>
        <mxCell id="fJewr03WWqxosDNzEVeh-117" value="爬取结果列表展示" style="rounded=0;whiteSpace=wrap;html=1;fillColor=#fff2cc;strokeColor=#d6b656;" parent="1" vertex="1">
          <mxGeometry x="196.25" y="5635" width="90" height="60" as="geometry" />
        </mxCell>
        <mxCell id="fJewr03WWqxosDNzEVeh-118" value="" style="endArrow=none;html=1;rounded=0;entryX=0.5;entryY=1;entryDx=0;entryDy=0;exitX=0.5;exitY=0;exitDx=0;exitDy=0;edgeStyle=orthogonalEdgeStyle;" parent="1" source="fJewr03WWqxosDNzEVeh-117" target="fJewr03WWqxosDNzEVeh-98" edge="1">
          <mxGeometry width="50" height="50" relative="1" as="geometry">
            <mxPoint x="267" y="5612" as="sourcePoint" />
            <mxPoint x="317" y="5562" as="targetPoint" />
          </mxGeometry>
        </mxCell>
        <mxCell id="fJewr03WWqxosDNzEVeh-120" value="作者追踪管理" style="rounded=0;whiteSpace=wrap;html=1;" parent="1" vertex="1">
          <mxGeometry x="930" y="5525" width="90" height="60" as="geometry" />
        </mxCell>
        <mxCell id="fJewr03WWqxosDNzEVeh-121" style="edgeStyle=none;rounded=0;orthogonalLoop=1;jettySize=auto;html=1;exitX=1;exitY=0.75;exitDx=0;exitDy=0;" parent="1" source="fJewr03WWqxosDNzEVeh-95" target="fJewr03WWqxosDNzEVeh-95" edge="1">
          <mxGeometry relative="1" as="geometry" />
        </mxCell>
        <mxCell id="fJewr03WWqxosDNzEVeh-122" value="" style="endArrow=none;html=1;rounded=0;entryX=0.5;entryY=1;entryDx=0;entryDy=0;exitX=0.5;exitY=0;exitDx=0;exitDy=0;edgeStyle=orthogonalEdgeStyle;" parent="1" source="fJewr03WWqxosDNzEVeh-120" target="fJewr03WWqxosDNzEVeh-91" edge="1">
          <mxGeometry width="50" height="50" relative="1" as="geometry">
            <mxPoint x="979" y="5476" as="sourcePoint" />
            <mxPoint x="1029" y="5426" as="targetPoint" />
          </mxGeometry>
        </mxCell>
        <mxCell id="EuiyOGrF9SNA8pJEP1qB-3" value="新事件E" style="rounded=0;whiteSpace=wrap;html=1;" parent="1" vertex="1">
          <mxGeometry x="84.5" y="6577.5" width="120" height="53" as="geometry" />
        </mxCell>
        <mxCell id="EuiyOGrF9SNA8pJEP1qB-14" value="识别事件E所属于的故事树Si" style="rounded=0;whiteSpace=wrap;html=1;" parent="1" vertex="1">
          <mxGeometry x="329.5" y="6564" width="125" height="81" as="geometry" />
        </mxCell>
        <mxCell id="EuiyOGrF9SNA8pJEP1qB-16" value="添加新事件E到故事树Si" style="rounded=0;whiteSpace=wrap;html=1;" parent="1" vertex="1">
          <mxGeometry x="578.5" y="6563" width="186" height="82" as="geometry" />
        </mxCell>
        <mxCell id="EuiyOGrF9SNA8pJEP1qB-17" value="" style="endArrow=classic;html=1;rounded=0;entryX=0;entryY=0.5;entryDx=0;entryDy=0;exitX=1;exitY=0.5;exitDx=0;exitDy=0;" parent="1" source="EuiyOGrF9SNA8pJEP1qB-3" target="EuiyOGrF9SNA8pJEP1qB-14" edge="1">
          <mxGeometry width="50" height="50" relative="1" as="geometry">
            <mxPoint x="97.5" y="6728" as="sourcePoint" />
            <mxPoint x="147.5" y="6678" as="targetPoint" />
          </mxGeometry>
        </mxCell>
        <mxCell id="EuiyOGrF9SNA8pJEP1qB-18" value="" style="endArrow=classic;html=1;rounded=0;exitX=1;exitY=0.5;exitDx=0;exitDy=0;entryX=0;entryY=0.5;entryDx=0;entryDy=0;" parent="1" source="EuiyOGrF9SNA8pJEP1qB-14" target="EuiyOGrF9SNA8pJEP1qB-16" edge="1">
          <mxGeometry width="50" height="50" relative="1" as="geometry">
            <mxPoint x="556.5" y="6744" as="sourcePoint" />
            <mxPoint x="606.5" y="6694" as="targetPoint" />
          </mxGeometry>
        </mxCell>
        <mxCell id="EuiyOGrF9SNA8pJEP1qB-21" value="预处理&amp;nbsp; &amp;nbsp;&lt;br&gt;关键词抽取：为每个文档生成关键词代表（需要用到预训练模型）" style="text;html=1;strokeColor=none;fillColor=none;align=left;verticalAlign=middle;whiteSpace=wrap;rounded=0;" parent="1" vertex="1">
          <mxGeometry x="76" y="6124" width="234" height="74" as="geometry" />
        </mxCell>
        <mxCell id="EuiyOGrF9SNA8pJEP1qB-23" value="&lt;b&gt;&lt;font style=&quot;font-size: 14px;&quot;&gt;流程a 计算出与事件E所属于的故事树Si&lt;/font&gt;&lt;/b&gt;&lt;br&gt;1 计算新事件E与每一个已存在故事树的兼容度，取兼容度大于门槛∂的&lt;br&gt;2 对于大于门槛∂的，继续检查新事件E与故事树中某个事件Ej至少共享n或者更多的关键词" style="text;html=1;align=left;verticalAlign=middle;resizable=0;points=[];autosize=1;strokeColor=none;fillColor=none;" parent="1" vertex="1">
          <mxGeometry x="24" y="6868" width="491" height="58" as="geometry" />
        </mxCell>
        <mxCell id="EuiyOGrF9SNA8pJEP1qB-24" value="流程a" style="text;html=1;align=center;verticalAlign=middle;resizable=0;points=[];autosize=1;strokeColor=none;fillColor=none;" parent="1" vertex="1">
          <mxGeometry x="229.5" y="6568" width="49" height="26" as="geometry" />
        </mxCell>
        <mxCell id="EuiyOGrF9SNA8pJEP1qB-25" value="流程b" style="text;html=1;align=center;verticalAlign=middle;resizable=0;points=[];autosize=1;strokeColor=none;fillColor=none;" parent="1" vertex="1">
          <mxGeometry x="487.5" y="6568" width="49" height="26" as="geometry" />
        </mxCell>
        <mxCell id="EuiyOGrF9SNA8pJEP1qB-26" value="&lt;b&gt;&lt;font style=&quot;font-size: 14px;&quot;&gt;流程b 把新事件E添加到故事Si中&lt;/font&gt;&lt;/b&gt;&lt;br&gt;1 遍历故事树Si中每一个事件Ei，使用“文档对关系分类器（SVM分类器）&lt;br&gt;&amp;nbsp; &amp;nbsp;”判断新事件E与Ei是否讨论同一件事，如果是则通过&lt;b&gt;方法x&lt;/b&gt;把事件E添加到事件Ei&lt;br&gt;2 否则，计算新事件E与事件Ei之间的连接强度，把连接强度与某个门槛∂比较，&lt;br&gt;&amp;nbsp; &amp;nbsp; 如果大于则把新事件E添加到Ei中&lt;br&gt;3 若小于，则把新事件E添加到故事树Si的根节点下" style="text;html=1;align=left;verticalAlign=middle;resizable=0;points=[];autosize=1;strokeColor=none;fillColor=none;" parent="1" vertex="1">
          <mxGeometry x="898.93" y="6739" width="448" height="101" as="geometry" />
        </mxCell>
        <mxCell id="Xpf5fN08IjZXoPcy1fZq-1" value="&lt;b&gt;&lt;font style=&quot;font-size: 14px;&quot;&gt;方法x 把新事件E添加到Ei的方法&lt;/font&gt;&lt;/b&gt;&lt;br&gt;1 把新事件E所有文档添加到事件Ei的文档集合中&lt;br&gt;2 把新事件E得关键词添加到事件Ei的关键词集合" style="text;html=1;align=left;verticalAlign=middle;resizable=0;points=[];autosize=1;strokeColor=none;fillColor=none;" parent="1" vertex="1">
          <mxGeometry x="485.5" y="7590" width="275" height="58" as="geometry" />
        </mxCell>
        <mxCell id="Xpf5fN08IjZXoPcy1fZq-2" value="新事件E，&lt;br&gt;故事树S集合，i=1,2,3..." style="shape=parallelogram;perimeter=parallelogramPerimeter;whiteSpace=wrap;html=1;fixedSize=1;" parent="1" vertex="1">
          <mxGeometry x="199.5" y="7006" width="150" height="60" as="geometry" />
        </mxCell>
        <mxCell id="Xpf5fN08IjZXoPcy1fZq-4" value="计算每一个故事树Si,i=1,2,3...与事件E的兼容度compatibility(Csi,Ce)&amp;nbsp;" style="rounded=0;whiteSpace=wrap;html=1;" parent="1" vertex="1">
          <mxGeometry x="180.06" y="7108" width="188.87" height="60" as="geometry" />
        </mxCell>
        <mxCell id="2e8T8K0_Hjb75UF_fqIj-4" value="" style="edgeStyle=orthogonalEdgeStyle;rounded=0;orthogonalLoop=1;jettySize=auto;html=1;" edge="1" parent="1" source="Xpf5fN08IjZXoPcy1fZq-5" target="Xpf5fN08IjZXoPcy1fZq-8">
          <mxGeometry relative="1" as="geometry" />
        </mxCell>
        <mxCell id="2e8T8K0_Hjb75UF_fqIj-5" value="是" style="edgeLabel;html=1;align=center;verticalAlign=middle;resizable=0;points=[];" vertex="1" connectable="0" parent="2e8T8K0_Hjb75UF_fqIj-4">
          <mxGeometry x="-0.115" y="2" relative="1" as="geometry">
            <mxPoint as="offset" />
          </mxGeometry>
        </mxCell>
        <mxCell id="Xpf5fN08IjZXoPcy1fZq-5" value="compatibility(Csi,Ce)&amp;gt;threshold1 &lt;br&gt;and&lt;br&gt;至少存在一个Csi的标题与文档E共享n或更多的常用单词（排除停用词）" style="rhombus;whiteSpace=wrap;html=1;" parent="1" vertex="1">
          <mxGeometry x="92" y="7210" width="366" height="110" as="geometry" />
        </mxCell>
        <mxCell id="Xpf5fN08IjZXoPcy1fZq-8" value="与新事件E相关联&lt;br&gt;的故事树Si" style="shape=parallelogram;perimeter=parallelogramPerimeter;whiteSpace=wrap;html=1;fixedSize=1;" parent="1" vertex="1">
          <mxGeometry x="209.74" y="7376" width="129.5" height="57" as="geometry" />
        </mxCell>
        <mxCell id="Xpf5fN08IjZXoPcy1fZq-9" value="" style="endArrow=classic;html=1;rounded=0;exitX=0.5;exitY=1;exitDx=0;exitDy=0;entryX=0.5;entryY=0;entryDx=0;entryDy=0;" parent="1" source="Xpf5fN08IjZXoPcy1fZq-2" target="Xpf5fN08IjZXoPcy1fZq-4" edge="1">
          <mxGeometry width="50" height="50" relative="1" as="geometry">
            <mxPoint x="28" y="7152" as="sourcePoint" />
            <mxPoint x="78" y="7102" as="targetPoint" />
          </mxGeometry>
        </mxCell>
        <mxCell id="Xpf5fN08IjZXoPcy1fZq-10" value="" style="endArrow=classic;html=1;rounded=0;exitX=0.5;exitY=1;exitDx=0;exitDy=0;entryX=0.5;entryY=0;entryDx=0;entryDy=0;" parent="1" source="Xpf5fN08IjZXoPcy1fZq-4" target="Xpf5fN08IjZXoPcy1fZq-5" edge="1">
          <mxGeometry width="50" height="50" relative="1" as="geometry">
            <mxPoint x="-59" y="7179" as="sourcePoint" />
            <mxPoint x="-9" y="7129" as="targetPoint" />
          </mxGeometry>
        </mxCell>
        <mxCell id="Xpf5fN08IjZXoPcy1fZq-14" value="" style="endArrow=classic;html=1;rounded=0;exitX=0;exitY=0.5;exitDx=0;exitDy=0;entryX=0;entryY=0.5;entryDx=0;entryDy=0;edgeStyle=orthogonalEdgeStyle;" parent="1" source="Xpf5fN08IjZXoPcy1fZq-5" target="Xpf5fN08IjZXoPcy1fZq-4" edge="1">
          <mxGeometry width="50" height="50" relative="1" as="geometry">
            <mxPoint x="45" y="7242" as="sourcePoint" />
            <mxPoint x="95" y="7192" as="targetPoint" />
          </mxGeometry>
        </mxCell>
        <mxCell id="Xpf5fN08IjZXoPcy1fZq-15" value="否" style="edgeLabel;html=1;align=center;verticalAlign=middle;resizable=0;points=[];" parent="Xpf5fN08IjZXoPcy1fZq-14" vertex="1" connectable="0">
          <mxGeometry x="-0.2216" y="1" relative="1" as="geometry">
            <mxPoint as="offset" />
          </mxGeometry>
        </mxCell>
        <mxCell id="Xpf5fN08IjZXoPcy1fZq-57" style="edgeStyle=orthogonalEdgeStyle;rounded=0;orthogonalLoop=1;jettySize=auto;html=1;" parent="1" source="Xpf5fN08IjZXoPcy1fZq-20" target="Xpf5fN08IjZXoPcy1fZq-21" edge="1">
          <mxGeometry relative="1" as="geometry" />
        </mxCell>
        <mxCell id="Xpf5fN08IjZXoPcy1fZq-20" value="新事件E与故事树Si" style="shape=parallelogram;perimeter=parallelogramPerimeter;whiteSpace=wrap;html=1;fixedSize=1;" parent="1" vertex="1">
          <mxGeometry x="747.25" y="6850" width="147" height="44" as="geometry" />
        </mxCell>
        <mxCell id="Xpf5fN08IjZXoPcy1fZq-34" style="edgeStyle=orthogonalEdgeStyle;rounded=0;orthogonalLoop=1;jettySize=auto;html=1;entryX=0.5;entryY=0;entryDx=0;entryDy=0;" parent="1" source="Xpf5fN08IjZXoPcy1fZq-21" target="Xpf5fN08IjZXoPcy1fZq-22" edge="1">
          <mxGeometry relative="1" as="geometry" />
        </mxCell>
        <mxCell id="Xpf5fN08IjZXoPcy1fZq-21" value="遍历故事树Si中每一个事件Ej,j=1,2,3..." style="rounded=0;whiteSpace=wrap;html=1;" parent="1" vertex="1">
          <mxGeometry x="727" y="6951" width="188.87" height="46" as="geometry" />
        </mxCell>
        <mxCell id="Xpf5fN08IjZXoPcy1fZq-26" style="edgeStyle=orthogonalEdgeStyle;rounded=0;orthogonalLoop=1;jettySize=auto;html=1;exitX=0;exitY=0.5;exitDx=0;exitDy=0;entryX=0.5;entryY=0;entryDx=0;entryDy=0;" parent="1" source="Xpf5fN08IjZXoPcy1fZq-22" target="Xpf5fN08IjZXoPcy1fZq-23" edge="1">
          <mxGeometry relative="1" as="geometry" />
        </mxCell>
        <mxCell id="Xpf5fN08IjZXoPcy1fZq-27" value="是" style="edgeLabel;html=1;align=center;verticalAlign=middle;resizable=0;points=[];" parent="Xpf5fN08IjZXoPcy1fZq-26" vertex="1" connectable="0">
          <mxGeometry x="0.0656" y="1" relative="1" as="geometry">
            <mxPoint as="offset" />
          </mxGeometry>
        </mxCell>
        <mxCell id="Xpf5fN08IjZXoPcy1fZq-47" style="edgeStyle=orthogonalEdgeStyle;rounded=0;orthogonalLoop=1;jettySize=auto;html=1;entryX=0.5;entryY=0;entryDx=0;entryDy=0;" parent="1" source="Xpf5fN08IjZXoPcy1fZq-22" target="Xpf5fN08IjZXoPcy1fZq-46" edge="1">
          <mxGeometry relative="1" as="geometry" />
        </mxCell>
        <mxCell id="Xpf5fN08IjZXoPcy1fZq-48" value="否" style="edgeLabel;html=1;align=center;verticalAlign=middle;resizable=0;points=[];" parent="Xpf5fN08IjZXoPcy1fZq-47" vertex="1" connectable="0">
          <mxGeometry x="-0.3463" relative="1" as="geometry">
            <mxPoint as="offset" />
          </mxGeometry>
        </mxCell>
        <mxCell id="Xpf5fN08IjZXoPcy1fZq-22" value="计算语义相似度阈值&lt;br&gt;判断Ej与E是否讨论同一件事&amp;nbsp;" style="rhombus;whiteSpace=wrap;html=1;" parent="1" vertex="1">
          <mxGeometry x="711.93" y="7046" width="219" height="92" as="geometry" />
        </mxCell>
        <mxCell id="Xpf5fN08IjZXoPcy1fZq-23" value="使用方法x把E与Ej融合(merge)" style="rounded=0;whiteSpace=wrap;html=1;" parent="1" vertex="1">
          <mxGeometry x="536" y="7501" width="120" height="60" as="geometry" />
        </mxCell>
        <mxCell id="Xpf5fN08IjZXoPcy1fZq-36" style="edgeStyle=orthogonalEdgeStyle;rounded=0;orthogonalLoop=1;jettySize=auto;html=1;entryX=0.5;entryY=0;entryDx=0;entryDy=0;" parent="1" source="Xpf5fN08IjZXoPcy1fZq-30" target="Xpf5fN08IjZXoPcy1fZq-31" edge="1">
          <mxGeometry relative="1" as="geometry">
            <mxPoint x="812.75" y="7539" as="targetPoint" />
          </mxGeometry>
        </mxCell>
        <mxCell id="Xpf5fN08IjZXoPcy1fZq-30" value="计算Ej，j=1,2,3...与E的连接强度connectionStrength(Ej,E)，取与E强度值最大的，假设是Ex" style="rounded=0;whiteSpace=wrap;html=1;" parent="1" vertex="1">
          <mxGeometry x="732" y="7427" width="178" height="60" as="geometry" />
        </mxCell>
        <mxCell id="Xpf5fN08IjZXoPcy1fZq-41" style="edgeStyle=orthogonalEdgeStyle;rounded=0;orthogonalLoop=1;jettySize=auto;html=1;exitX=0.5;exitY=1;exitDx=0;exitDy=0;" parent="1" source="Xpf5fN08IjZXoPcy1fZq-31" target="Xpf5fN08IjZXoPcy1fZq-40" edge="1">
          <mxGeometry relative="1" as="geometry">
            <mxPoint x="812.75" y="7618" as="sourcePoint" />
          </mxGeometry>
        </mxCell>
        <mxCell id="Xpf5fN08IjZXoPcy1fZq-42" value="是" style="edgeLabel;html=1;align=center;verticalAlign=middle;resizable=0;points=[];" parent="Xpf5fN08IjZXoPcy1fZq-41" vertex="1" connectable="0">
          <mxGeometry x="-0.0547" y="-1" relative="1" as="geometry">
            <mxPoint as="offset" />
          </mxGeometry>
        </mxCell>
        <mxCell id="Xpf5fN08IjZXoPcy1fZq-55" style="edgeStyle=orthogonalEdgeStyle;rounded=0;orthogonalLoop=1;jettySize=auto;html=1;entryX=0.5;entryY=0;entryDx=0;entryDy=0;" parent="1" source="Xpf5fN08IjZXoPcy1fZq-31" target="Xpf5fN08IjZXoPcy1fZq-43" edge="1">
          <mxGeometry relative="1" as="geometry" />
        </mxCell>
        <mxCell id="Xpf5fN08IjZXoPcy1fZq-56" value="否" style="edgeLabel;html=1;align=center;verticalAlign=middle;resizable=0;points=[];" parent="Xpf5fN08IjZXoPcy1fZq-55" vertex="1" connectable="0">
          <mxGeometry x="-0.0873" y="4" relative="1" as="geometry">
            <mxPoint as="offset" />
          </mxGeometry>
        </mxCell>
        <mxCell id="Xpf5fN08IjZXoPcy1fZq-31" value="connectionStrength(Ex,E)&amp;gt;threshold2" style="rhombus;whiteSpace=wrap;html=1;" parent="1" vertex="1">
          <mxGeometry x="709.5" y="7539" width="222.5" height="79" as="geometry" />
        </mxCell>
        <mxCell id="Xpf5fN08IjZXoPcy1fZq-40" value="使用E扩展(extend)&lt;br&gt;为在故事树Si与Ej直接连接的一个节点" style="rounded=0;whiteSpace=wrap;html=1;" parent="1" vertex="1">
          <mxGeometry x="653" y="7684" width="120" height="60" as="geometry" />
        </mxCell>
        <mxCell id="Xpf5fN08IjZXoPcy1fZq-43" value="直接把E作为一个新节点插入到Si的根结点下" style="rounded=0;whiteSpace=wrap;html=1;" parent="1" vertex="1">
          <mxGeometry x="864.0000000000001" y="7684" width="120" height="60" as="geometry" />
        </mxCell>
        <mxCell id="Xpf5fN08IjZXoPcy1fZq-49" style="edgeStyle=orthogonalEdgeStyle;rounded=0;orthogonalLoop=1;jettySize=auto;html=1;entryX=1;entryY=0.5;entryDx=0;entryDy=0;exitX=1;exitY=0.5;exitDx=0;exitDy=0;" parent="1" source="Xpf5fN08IjZXoPcy1fZq-46" target="Xpf5fN08IjZXoPcy1fZq-21" edge="1">
          <mxGeometry relative="1" as="geometry">
            <Array as="points">
              <mxPoint x="969" y="7219" />
              <mxPoint x="969" y="6974" />
            </Array>
          </mxGeometry>
        </mxCell>
        <mxCell id="Xpf5fN08IjZXoPcy1fZq-50" value="否" style="edgeLabel;html=1;align=center;verticalAlign=middle;resizable=0;points=[];" parent="Xpf5fN08IjZXoPcy1fZq-49" vertex="1" connectable="0">
          <mxGeometry x="0.0628" y="1" relative="1" as="geometry">
            <mxPoint as="offset" />
          </mxGeometry>
        </mxCell>
        <mxCell id="Xpf5fN08IjZXoPcy1fZq-52" style="edgeStyle=orthogonalEdgeStyle;rounded=0;orthogonalLoop=1;jettySize=auto;html=1;entryX=0.5;entryY=0;entryDx=0;entryDy=0;" parent="1" source="Xpf5fN08IjZXoPcy1fZq-46" target="Xpf5fN08IjZXoPcy1fZq-51" edge="1">
          <mxGeometry relative="1" as="geometry">
            <Array as="points">
              <mxPoint x="821" y="7278" />
              <mxPoint x="821" y="7278" />
            </Array>
          </mxGeometry>
        </mxCell>
        <mxCell id="Xpf5fN08IjZXoPcy1fZq-54" value="是" style="edgeLabel;html=1;align=center;verticalAlign=middle;resizable=0;points=[];" parent="Xpf5fN08IjZXoPcy1fZq-52" vertex="1" connectable="0">
          <mxGeometry x="-0.1633" y="1" relative="1" as="geometry">
            <mxPoint as="offset" />
          </mxGeometry>
        </mxCell>
        <mxCell id="Xpf5fN08IjZXoPcy1fZq-46" value="Si中的事件是否都遍历完" style="rhombus;whiteSpace=wrap;html=1;" parent="1" vertex="1">
          <mxGeometry x="743.93" y="7179" width="155" height="80" as="geometry" />
        </mxCell>
        <mxCell id="Xpf5fN08IjZXoPcy1fZq-53" style="edgeStyle=orthogonalEdgeStyle;rounded=0;orthogonalLoop=1;jettySize=auto;html=1;exitX=0.5;exitY=1;exitDx=0;exitDy=0;" parent="1" source="Xpf5fN08IjZXoPcy1fZq-51" target="Xpf5fN08IjZXoPcy1fZq-30" edge="1">
          <mxGeometry relative="1" as="geometry" />
        </mxCell>
        <mxCell id="Xpf5fN08IjZXoPcy1fZq-51" value="遍历故事树Si中每一个事件Ej,j=1,2,3..." style="rounded=0;whiteSpace=wrap;html=1;" parent="1" vertex="1">
          <mxGeometry x="761.43" y="7314" width="120" height="60" as="geometry" />
        </mxCell>
        <mxCell id="Xpf5fN08IjZXoPcy1fZq-61" value="&lt;font style=&quot;font-size: 14px;&quot;&gt;&lt;b&gt;整体流程图&lt;/b&gt;&lt;/font&gt;" style="text;html=1;align=center;verticalAlign=middle;resizable=0;points=[];autosize=1;strokeColor=none;fillColor=none;" parent="1" vertex="1">
          <mxGeometry x="85" y="6370" width="88" height="29" as="geometry" />
        </mxCell>
        <mxCell id="RA3kskrslH63wT-UYJR5-1" value="" style="rounded=1;whiteSpace=wrap;html=1;fillColor=#EDFFFE;" parent="1" vertex="1">
          <mxGeometry x="122" y="7907" width="230" height="377" as="geometry" />
        </mxCell>
        <mxCell id="RA3kskrslH63wT-UYJR5-2" value="数据采集和预处理" style="text;html=1;strokeColor=none;fillColor=none;align=center;verticalAlign=middle;whiteSpace=wrap;rounded=0;" parent="1" vertex="1">
          <mxGeometry x="172" y="7919" width="111" height="30" as="geometry" />
        </mxCell>
        <mxCell id="RA3kskrslH63wT-UYJR5-3" value="" style="rounded=1;whiteSpace=wrap;html=1;fillColor=#EDFFFE;" parent="1" vertex="1">
          <mxGeometry x="414" y="7907" width="418" height="376" as="geometry" />
        </mxCell>
        <mxCell id="RA3kskrslH63wT-UYJR5-4" value="数据分析和可视化" style="text;html=1;strokeColor=none;fillColor=none;align=center;verticalAlign=middle;whiteSpace=wrap;rounded=0;" parent="1" vertex="1">
          <mxGeometry x="502" y="7917" width="106" height="30" as="geometry" />
        </mxCell>
        <mxCell id="RA3kskrslH63wT-UYJR5-22" style="edgeStyle=orthogonalEdgeStyle;rounded=0;orthogonalLoop=1;jettySize=auto;html=1;" parent="1" source="RA3kskrslH63wT-UYJR5-15" target="RA3kskrslH63wT-UYJR5-17" edge="1">
          <mxGeometry relative="1" as="geometry" />
        </mxCell>
        <mxCell id="RA3kskrslH63wT-UYJR5-15" value="&lt;p style=&quot;margin:0px;margin-top:4px;text-align:center;&quot;&gt;某一主题新闻文档&lt;/p&gt;&lt;hr size=&quot;1&quot;&gt;&lt;div style=&quot;height:2px;&quot;&gt;&lt;/div&gt;" style="verticalAlign=top;align=left;overflow=fill;fontSize=12;fontFamily=Helvetica;html=1;whiteSpace=wrap;fillColor=#E8FFE8;" parent="1" vertex="1">
          <mxGeometry x="160" y="7951" width="140" height="47" as="geometry" />
        </mxCell>
        <mxCell id="RA3kskrslH63wT-UYJR5-17" value="数据清洗" style="shape=process;whiteSpace=wrap;html=1;backgroundOutline=1;fillColor=#FFEEE0;" parent="1" vertex="1">
          <mxGeometry x="170" y="8033" width="120" height="41" as="geometry" />
        </mxCell>
        <mxCell id="RA3kskrslH63wT-UYJR5-24" value="" style="edgeStyle=orthogonalEdgeStyle;rounded=0;orthogonalLoop=1;jettySize=auto;html=1;" parent="1" source="RA3kskrslH63wT-UYJR5-18" target="RA3kskrslH63wT-UYJR5-20" edge="1">
          <mxGeometry relative="1" as="geometry" />
        </mxCell>
        <mxCell id="RA3kskrslH63wT-UYJR5-18" value="mongoDB数据库" style="strokeWidth=1;html=1;shape=mxgraph.flowchart.database;whiteSpace=wrap;fillColor=#DBEEFF;" parent="1" vertex="1">
          <mxGeometry x="164.5" y="8107" width="130" height="60" as="geometry" />
        </mxCell>
        <mxCell id="RA3kskrslH63wT-UYJR5-20" value="向量数据库" style="strokeWidth=1;html=1;shape=mxgraph.flowchart.database;whiteSpace=wrap;fillColor=#DBEEFF;" parent="1" vertex="1">
          <mxGeometry x="161" y="8199" width="137" height="60" as="geometry" />
        </mxCell>
        <mxCell id="RA3kskrslH63wT-UYJR5-23" style="edgeStyle=orthogonalEdgeStyle;rounded=0;orthogonalLoop=1;jettySize=auto;html=1;entryX=0.5;entryY=0;entryDx=0;entryDy=0;entryPerimeter=0;" parent="1" source="RA3kskrslH63wT-UYJR5-17" target="RA3kskrslH63wT-UYJR5-18" edge="1">
          <mxGeometry relative="1" as="geometry" />
        </mxCell>
        <mxCell id="RA3kskrslH63wT-UYJR5-116" value="" style="edgeStyle=orthogonalEdgeStyle;rounded=0;orthogonalLoop=1;jettySize=auto;html=1;" parent="1" source="RA3kskrslH63wT-UYJR5-103" target="RA3kskrslH63wT-UYJR5-113" edge="1">
          <mxGeometry relative="1" as="geometry" />
        </mxCell>
        <mxCell id="RA3kskrslH63wT-UYJR5-103" value="" style="rounded=0;whiteSpace=wrap;html=1;fillColor=#FFEEE0;" parent="1" vertex="1">
          <mxGeometry x="454" y="7947" width="225" height="155" as="geometry" />
        </mxCell>
        <mxCell id="RA3kskrslH63wT-UYJR5-104" value="标题获取模块" style="rounded=0;whiteSpace=wrap;html=1;fillColor=#FFDAC9;" parent="1" vertex="1">
          <mxGeometry x="466" y="7979" width="91" height="49" as="geometry" />
        </mxCell>
        <mxCell id="RA3kskrslH63wT-UYJR5-105" value="事件事件范围获取模块" style="rounded=0;whiteSpace=wrap;html=1;fillColor=#FFDAC9;" parent="1" vertex="1">
          <mxGeometry x="571" y="7979.25" width="89" height="47.75" as="geometry" />
        </mxCell>
        <mxCell id="RA3kskrslH63wT-UYJR5-106" value="事件关键词获取模块" style="rounded=0;whiteSpace=wrap;html=1;fillColor=#FFDAC9;" parent="1" vertex="1">
          <mxGeometry x="466" y="8037" width="93" height="55" as="geometry" />
        </mxCell>
        <mxCell id="RA3kskrslH63wT-UYJR5-107" value="事件文档集合获取模块" style="rounded=0;whiteSpace=wrap;html=1;fillColor=#FFDAC9;" parent="1" vertex="1">
          <mxGeometry x="571" y="8037" width="90" height="55" as="geometry" />
        </mxCell>
        <mxCell id="RA3kskrslH63wT-UYJR5-117" value="" style="edgeStyle=orthogonalEdgeStyle;rounded=0;orthogonalLoop=1;jettySize=auto;html=1;" parent="1" source="RA3kskrslH63wT-UYJR5-113" target="RA3kskrslH63wT-UYJR5-114" edge="1">
          <mxGeometry relative="1" as="geometry" />
        </mxCell>
        <mxCell id="RA3kskrslH63wT-UYJR5-113" value="" style="rounded=0;whiteSpace=wrap;html=1;fillColor=#FFEEE0;" parent="1" vertex="1">
          <mxGeometry x="455" y="8128" width="223" height="79" as="geometry" />
        </mxCell>
        <mxCell id="RA3kskrslH63wT-UYJR5-114" value="脉络图" style="rounded=0;whiteSpace=wrap;html=1;fillColor=#E8FFE8;" parent="1" vertex="1">
          <mxGeometry x="512" y="8229" width="109" height="37" as="geometry" />
        </mxCell>
        <mxCell id="RA3kskrslH63wT-UYJR5-119" value="事件与故事树的连接强度计算" style="rounded=0;whiteSpace=wrap;html=1;fillColor=#FFDAC9;" parent="1" vertex="1">
          <mxGeometry x="469.37" y="8153" width="85.63" height="43" as="geometry" />
        </mxCell>
        <mxCell id="RA3kskrslH63wT-UYJR5-121" value="事件处理模块" style="text;html=1;strokeColor=none;fillColor=none;align=center;verticalAlign=middle;whiteSpace=wrap;rounded=0;" parent="1" vertex="1">
          <mxGeometry x="526" y="7949.25" width="80" height="30" as="geometry" />
        </mxCell>
        <mxCell id="RA3kskrslH63wT-UYJR5-124" value="事件关系处理" style="text;html=1;strokeColor=none;fillColor=none;align=center;verticalAlign=middle;whiteSpace=wrap;rounded=0;" parent="1" vertex="1">
          <mxGeometry x="521" y="8125" width="90" height="30" as="geometry" />
        </mxCell>
        <mxCell id="RA3kskrslH63wT-UYJR5-125" value="添加事件到故事树" style="rounded=0;whiteSpace=wrap;html=1;fillColor=#FFDAC9;" parent="1" vertex="1">
          <mxGeometry x="578" y="8153" width="92" height="42.5" as="geometry" />
        </mxCell>
        <mxCell id="RA3kskrslH63wT-UYJR5-130" value="&lt;font style=&quot;font-size: 14px;&quot;&gt;&lt;b&gt;系统模块图&lt;/b&gt;&lt;/font&gt;" style="text;html=1;strokeColor=none;fillColor=none;align=center;verticalAlign=middle;whiteSpace=wrap;rounded=0;" parent="1" vertex="1">
          <mxGeometry x="122" y="7847" width="88" height="30" as="geometry" />
        </mxCell>
        <mxCell id="RA3kskrslH63wT-UYJR5-131" value="&lt;b&gt;&lt;font style=&quot;font-size: 14px;&quot;&gt;流程a&lt;/font&gt;&lt;/b&gt;" style="text;html=1;align=center;verticalAlign=middle;resizable=0;points=[];autosize=1;strokeColor=none;fillColor=none;" parent="1" vertex="1">
          <mxGeometry x="240.5" y="6957" width="54" height="29" as="geometry" />
        </mxCell>
        <mxCell id="RA3kskrslH63wT-UYJR5-132" value="&lt;b&gt;&lt;font style=&quot;font-size: 14px;&quot;&gt;流程b&lt;/font&gt;&lt;/b&gt;" style="text;html=1;align=center;verticalAlign=middle;resizable=0;points=[];autosize=1;strokeColor=none;fillColor=none;" parent="1" vertex="1">
          <mxGeometry x="801" y="6807" width="55" height="29" as="geometry" />
        </mxCell>
        <mxCell id="RA3kskrslH63wT-UYJR5-137" value="" style="rounded=0;whiteSpace=wrap;html=1;fillColor=#FFEEE0;" parent="1" vertex="1">
          <mxGeometry x="701" y="7947" width="120" height="308" as="geometry" />
        </mxCell>
        <mxCell id="RA3kskrslH63wT-UYJR5-138" value="" style="shape=flexArrow;endArrow=classic;html=1;rounded=0;exitX=1;exitY=0.5;exitDx=0;exitDy=0;entryX=0;entryY=0.5;entryDx=0;entryDy=0;strokeColor=#000000;fillColor=#000000;" parent="1" source="RA3kskrslH63wT-UYJR5-1" target="RA3kskrslH63wT-UYJR5-3" edge="1">
          <mxGeometry width="50" height="50" relative="1" as="geometry">
            <mxPoint x="588" y="8138" as="sourcePoint" />
            <mxPoint x="638" y="8088" as="targetPoint" />
          </mxGeometry>
        </mxCell>
        <mxCell id="RA3kskrslH63wT-UYJR5-139" value="基础数据统计" style="text;html=1;strokeColor=none;fillColor=none;align=center;verticalAlign=middle;whiteSpace=wrap;rounded=0;" parent="1" vertex="1">
          <mxGeometry x="727" y="7956" width="77" height="30" as="geometry" />
        </mxCell>
        <mxCell id="RA3kskrslH63wT-UYJR5-140" value="文章数量统计" style="rounded=0;whiteSpace=wrap;html=1;fillColor=#FFDAC9;" parent="1" vertex="1">
          <mxGeometry x="709.5" y="7992" width="105" height="51" as="geometry" />
        </mxCell>
        <mxCell id="RA3kskrslH63wT-UYJR5-141" value="日发文量统计" style="rounded=0;whiteSpace=wrap;html=1;fillColor=#FFDAC9;" parent="1" vertex="1">
          <mxGeometry x="709.5" y="8061" width="106" height="48" as="geometry" />
        </mxCell>
        <mxCell id="RA3kskrslH63wT-UYJR5-142" value="作者统计" style="rounded=0;whiteSpace=wrap;html=1;fillColor=#FFDAC9;" parent="1" vertex="1">
          <mxGeometry x="710" y="8128" width="105" height="46" as="geometry" />
        </mxCell>
        <mxCell id="RA3kskrslH63wT-UYJR5-143" value="关键词统计" style="rounded=0;whiteSpace=wrap;html=1;fillColor=#FFDAC9;" parent="1" vertex="1">
          <mxGeometry x="709" y="8188" width="105" height="46" as="geometry" />
        </mxCell>
        <mxCell id="2e8T8K0_Hjb75UF_fqIj-6" value="主题中的多个文档" style="rounded=0;whiteSpace=wrap;html=1;" vertex="1" parent="1">
          <mxGeometry x="82.5" y="6434.5" width="120" height="60" as="geometry" />
        </mxCell>
        <mxCell id="2e8T8K0_Hjb75UF_fqIj-7" style="edgeStyle=orthogonalEdgeStyle;rounded=0;orthogonalLoop=1;jettySize=auto;html=1;entryX=0;entryY=0.5;entryDx=0;entryDy=0;" edge="1" parent="1" source="2e8T8K0_Hjb75UF_fqIj-8" target="2e8T8K0_Hjb75UF_fqIj-11">
          <mxGeometry relative="1" as="geometry" />
        </mxCell>
        <mxCell id="2e8T8K0_Hjb75UF_fqIj-8" value="文档图" style="rounded=0;whiteSpace=wrap;html=1;" vertex="1" parent="1">
          <mxGeometry x="491" y="6435.5" width="120" height="59" as="geometry" />
        </mxCell>
        <mxCell id="2e8T8K0_Hjb75UF_fqIj-9" value="" style="endArrow=classic;html=1;rounded=0;exitX=1;exitY=0.5;exitDx=0;exitDy=0;entryX=0;entryY=0.5;entryDx=0;entryDy=0;" edge="1" parent="1" source="2e8T8K0_Hjb75UF_fqIj-6" target="2e8T8K0_Hjb75UF_fqIj-8">
          <mxGeometry width="50" height="50" relative="1" as="geometry">
            <mxPoint x="238.5" y="6329.5" as="sourcePoint" />
            <mxPoint x="288.5" y="6279.5" as="targetPoint" />
          </mxGeometry>
        </mxCell>
        <mxCell id="2e8T8K0_Hjb75UF_fqIj-10" value="语义相似度阈值法：判断两个文档是否说的同一件事情，如果是则两个文档中有一条边" style="text;strokeColor=none;align=center;fillColor=none;html=1;verticalAlign=middle;whiteSpace=wrap;rounded=0;" vertex="1" parent="1">
          <mxGeometry x="295.43" y="6418.5" width="130" height="30" as="geometry" />
        </mxCell>
        <mxCell id="2e8T8K0_Hjb75UF_fqIj-11" value="主题中文档集合聚合成多个事件" style="rounded=0;whiteSpace=wrap;html=1;" vertex="1" parent="1">
          <mxGeometry x="906" y="6435.5" width="120" height="59" as="geometry" />
        </mxCell>
        <mxCell id="2e8T8K0_Hjb75UF_fqIj-12" value="社区检测算法：基于介数中心性&lt;br&gt;（betweenness centrality）的社区检测算法" style="text;html=1;align=center;verticalAlign=middle;resizable=0;points=[];autosize=1;strokeColor=none;fillColor=none;" vertex="1" parent="1">
          <mxGeometry x="635" y="6413" width="248" height="41" as="geometry" />
        </mxCell>
      </root>
    </mxGraphModel>
  </diagram>
</mxfile>
